<?xml version="1.0" encoding="utf-8" standalone="no"?>
<!DOCTYPE svg PUBLIC "-//W3C//DTD SVG 1.1//EN"
  "http://www.w3.org/Graphics/SVG/1.1/DTD/svg11.dtd">
<!-- Created with matplotlib (https://matplotlib.org/) -->
<svg height="864pt" version="1.1" viewBox="0 0 1080 864" width="1080pt" xmlns="http://www.w3.org/2000/svg" xmlns:xlink="http://www.w3.org/1999/xlink">
 <metadata>
  <rdf:RDF xmlns:cc="http://creativecommons.org/ns#" xmlns:dc="http://purl.org/dc/elements/1.1/" xmlns:rdf="http://www.w3.org/1999/02/22-rdf-syntax-ns#">
   <cc:Work>
    <dc:type rdf:resource="http://purl.org/dc/dcmitype/StillImage"/>
    <dc:date>2021-05-21T09:22:16.369275</dc:date>
    <dc:format>image/svg+xml</dc:format>
    <dc:creator>
     <cc:Agent>
      <dc:title>Matplotlib v3.3.2, https://matplotlib.org/</dc:title>
     </cc:Agent>
    </dc:creator>
   </cc:Work>
  </rdf:RDF>
 </metadata>
 <defs>
  <style type="text/css">*{stroke-linecap:butt;stroke-linejoin:round;}</style>
 </defs>
 <g id="figure_1">
  <g id="patch_1">
   <path d="M 0 864 
L 1080 864 
L 1080 0 
L 0 0 
z
" style="fill:#ffffff;"/>
  </g>
  <g id="axes_1">
   <g id="patch_2">
    <path d="M 93.35 339.582 
L 1053.27 339.582 
L 1053.27 20.52 
L 93.35 20.52 
z
" style="fill:#ffffff;"/>
   </g>
   <g id="PolyCollection_1">
    <path clip-path="url(#p9bbdf0f329)" d="M 93.35 180.051 
L 93.35 227.9103 
L 103.046162 227.9103 
L 112.742323 227.9103 
L 122.438485 227.9103 
L 132.134646 227.9103 
L 141.830808 227.9103 
L 151.52697 227.9103 
L 161.223131 227.9103 
L 170.919293 227.9103 
L 180.615455 227.9103 
L 190.311616 227.9103 
L 200.007778 227.9103 
L 209.703939 227.9103 
L 219.400101 227.9103 
L 229.096263 227.9103 
L 238.792424 227.9103 
L 248.488586 227.9103 
L 258.184747 227.9103 
L 267.880909 227.9103 
L 277.577071 227.9103 
L 287.273232 227.9103 
L 296.969394 227.9103 
L 306.665556 229.018154 
L 316.361717 231.032434 
L 326.057879 233.046715 
L 335.75404 235.060995 
L 345.450202 237.075275 
L 355.146364 239.089556 
L 364.842525 241.103836 
L 374.538687 243.118116 
L 384.234848 245.132397 
L 393.93101 247.146677 
L 403.627172 249.160957 
L 413.323333 251.175238 
L 423.019495 253.189518 
L 432.715657 255.203798 
L 442.411818 257.218078 
L 452.10798 259.232359 
L 461.804141 261.246639 
L 471.500303 263.260919 
L 481.196465 265.2752 
L 490.892626 267.28948 
L 500.588788 269.30376 
L 510.284949 271.318041 
L 519.981111 273.332321 
L 529.677273 275.346601 
L 539.373434 277.360881 
L 549.069596 279.375162 
L 558.765758 281.389442 
L 568.461919 283.403722 
L 578.158081 285.418003 
L 587.854242 287.432283 
L 597.550404 289.446563 
L 607.246566 291.460844 
L 616.942727 293.475124 
L 626.638889 295.489404 
L 636.335051 297.503684 
L 646.031212 299.517965 
L 655.727374 301.532245 
L 665.423535 303.546525 
L 675.119697 305.560806 
L 684.815859 307.575086 
L 694.51202 307.6758 
L 704.208182 307.6758 
L 713.904343 307.6758 
L 723.600505 307.6758 
L 733.296667 307.6758 
L 742.992828 307.6758 
L 752.68899 307.6758 
L 762.385152 307.6758 
L 772.081313 307.6758 
L 781.777475 307.6758 
L 791.473636 307.6758 
L 801.169798 307.6758 
L 810.86596 307.6758 
L 820.562121 307.6758 
L 830.258283 307.6758 
L 839.954444 307.6758 
L 849.650606 307.6758 
L 859.346768 307.6758 
L 869.042929 307.6758 
L 878.739091 307.6758 
L 888.435253 307.6758 
L 898.131414 307.6758 
L 907.827576 307.6758 
L 917.523737 307.6758 
L 927.219899 307.6758 
L 936.916061 307.6758 
L 946.612222 307.6758 
L 956.308384 307.6758 
L 966.004545 307.6758 
L 975.700707 307.6758 
L 985.396869 307.6758 
L 995.09303 307.6758 
L 1004.789192 307.6758 
L 1014.485354 307.6758 
L 1024.181515 307.6758 
L 1033.877677 307.6758 
L 1043.573838 307.6758 
L 1053.27 307.6758 
L 1053.27 291.7227 
L 1053.27 291.7227 
L 1043.573838 291.7227 
L 1033.877677 291.7227 
L 1024.181515 291.7227 
L 1014.485354 291.7227 
L 1004.789192 291.7227 
L 995.09303 291.7227 
L 985.396869 291.7227 
L 975.700707 291.7227 
L 966.004545 291.7227 
L 956.308384 291.7227 
L 946.612222 291.7227 
L 936.916061 291.7227 
L 927.219899 291.7227 
L 917.523737 291.7227 
L 907.827576 291.7227 
L 898.131414 291.7227 
L 888.435253 291.7227 
L 878.739091 291.7227 
L 869.042929 291.7227 
L 859.346768 291.7227 
L 849.650606 291.7227 
L 839.954444 291.7227 
L 830.258283 291.7227 
L 820.562121 291.7227 
L 810.86596 291.7227 
L 801.169798 291.7227 
L 791.473636 290.098384 
L 781.777475 287.391192 
L 772.081313 284.683999 
L 762.385152 281.976806 
L 752.68899 279.269613 
L 742.992828 276.562421 
L 733.296667 273.855228 
L 723.600505 271.148035 
L 713.904343 268.440843 
L 704.208182 265.73365 
L 694.51202 263.026457 
L 684.815859 260.319264 
L 675.119697 257.612072 
L 665.423535 254.904879 
L 655.727374 252.197686 
L 646.031212 249.490493 
L 636.335051 246.783301 
L 626.638889 244.076108 
L 616.942727 241.368915 
L 607.246566 238.661723 
L 597.550404 235.95453 
L 587.854242 233.247337 
L 578.158081 230.540144 
L 568.461919 227.832952 
L 558.765758 225.125759 
L 549.069596 222.418566 
L 539.373434 219.711373 
L 529.677273 217.004181 
L 519.981111 214.296988 
L 510.284949 211.589795 
L 500.588788 208.882603 
L 490.892626 206.17541 
L 481.196465 203.468217 
L 471.500303 200.761024 
L 461.804141 198.053832 
L 452.10798 195.346639 
L 442.411818 192.639446 
L 432.715657 189.932253 
L 423.019495 187.225061 
L 413.323333 184.517868 
L 403.627172 181.810675 
L 393.93101 180.051 
L 384.234848 180.051 
L 374.538687 180.051 
L 364.842525 180.051 
L 355.146364 180.051 
L 345.450202 180.051 
L 335.75404 180.051 
L 326.057879 180.051 
L 316.361717 180.051 
L 306.665556 180.051 
L 296.969394 180.051 
L 287.273232 180.051 
L 277.577071 180.051 
L 267.880909 180.051 
L 258.184747 180.051 
L 248.488586 180.051 
L 238.792424 180.051 
L 229.096263 180.051 
L 219.400101 180.051 
L 209.703939 180.051 
L 200.007778 180.051 
L 190.311616 180.051 
L 180.615455 180.051 
L 170.919293 180.051 
L 161.223131 180.051 
L 151.52697 180.051 
L 141.830808 180.051 
L 132.134646 180.051 
L 122.438485 180.051 
L 112.742323 180.051 
L 103.046162 180.051 
L 93.35 180.051 
z
" style="fill:#008000;fill-opacity:0.3;"/>
   </g>
   <g id="matplotlib.axis_1">
    <g id="xtick_1">
     <g id="line2d_1">
      <defs>
       <path d="M 0 0 
L 0 3.5 
" id="m0968a3101a" style="stroke:#000000;stroke-width:0.8;"/>
      </defs>
      <g>
       <use style="stroke:#000000;stroke-width:0.8;" x="93.35" xlink:href="#m0968a3101a" y="339.582"/>
      </g>
     </g>
     <g id="text_1">
      <!-- -25 -->
      <g transform="translate(72.933984 365.578094)scale(0.25 -0.25)">
       <defs>
        <path d="M 4.890625 31.390625 
L 31.203125 31.390625 
L 31.203125 23.390625 
L 4.890625 23.390625 
z
" id="DejaVuSans-45"/>
        <path d="M 19.1875 8.296875 
L 53.609375 8.296875 
L 53.609375 0 
L 7.328125 0 
L 7.328125 8.296875 
Q 12.9375 14.109375 22.625 23.890625 
Q 32.328125 33.6875 34.8125 36.53125 
Q 39.546875 41.84375 41.421875 45.53125 
Q 43.3125 49.21875 43.3125 52.78125 
Q 43.3125 58.59375 39.234375 62.25 
Q 35.15625 65.921875 28.609375 65.921875 
Q 23.96875 65.921875 18.8125 64.3125 
Q 13.671875 62.703125 7.8125 59.421875 
L 7.8125 69.390625 
Q 13.765625 71.78125 18.9375 73 
Q 24.125 74.21875 28.421875 74.21875 
Q 39.75 74.21875 46.484375 68.546875 
Q 53.21875 62.890625 53.21875 53.421875 
Q 53.21875 48.921875 51.53125 44.890625 
Q 49.859375 40.875 45.40625 35.40625 
Q 44.1875 33.984375 37.640625 27.21875 
Q 31.109375 20.453125 19.1875 8.296875 
z
" id="DejaVuSans-50"/>
        <path d="M 10.796875 72.90625 
L 49.515625 72.90625 
L 49.515625 64.59375 
L 19.828125 64.59375 
L 19.828125 46.734375 
Q 21.96875 47.46875 24.109375 47.828125 
Q 26.265625 48.1875 28.421875 48.1875 
Q 40.625 48.1875 47.75 41.5 
Q 54.890625 34.8125 54.890625 23.390625 
Q 54.890625 11.625 47.5625 5.09375 
Q 40.234375 -1.421875 26.90625 -1.421875 
Q 22.3125 -1.421875 17.546875 -0.640625 
Q 12.796875 0.140625 7.71875 1.703125 
L 7.71875 11.625 
Q 12.109375 9.234375 16.796875 8.0625 
Q 21.484375 6.890625 26.703125 6.890625 
Q 35.15625 6.890625 40.078125 11.328125 
Q 45.015625 15.765625 45.015625 23.390625 
Q 45.015625 31 40.078125 35.4375 
Q 35.15625 39.890625 26.703125 39.890625 
Q 22.75 39.890625 18.8125 39.015625 
Q 14.890625 38.140625 10.796875 36.28125 
z
" id="DejaVuSans-53"/>
       </defs>
       <use xlink:href="#DejaVuSans-45"/>
       <use x="36.083984" xlink:href="#DejaVuSans-50"/>
       <use x="99.707031" xlink:href="#DejaVuSans-53"/>
      </g>
     </g>
    </g>
    <g id="xtick_2">
     <g id="line2d_2">
      <g>
       <use style="stroke:#000000;stroke-width:0.8;" x="173.343333" xlink:href="#m0968a3101a" y="339.582"/>
      </g>
     </g>
     <g id="text_2">
      <!-- -20 -->
      <g transform="translate(152.927318 365.578094)scale(0.25 -0.25)">
       <defs>
        <path d="M 31.78125 66.40625 
Q 24.171875 66.40625 20.328125 58.90625 
Q 16.5 51.421875 16.5 36.375 
Q 16.5 21.390625 20.328125 13.890625 
Q 24.171875 6.390625 31.78125 6.390625 
Q 39.453125 6.390625 43.28125 13.890625 
Q 47.125 21.390625 47.125 36.375 
Q 47.125 51.421875 43.28125 58.90625 
Q 39.453125 66.40625 31.78125 66.40625 
z
M 31.78125 74.21875 
Q 44.046875 74.21875 50.515625 64.515625 
Q 56.984375 54.828125 56.984375 36.375 
Q 56.984375 17.96875 50.515625 8.265625 
Q 44.046875 -1.421875 31.78125 -1.421875 
Q 19.53125 -1.421875 13.0625 8.265625 
Q 6.59375 17.96875 6.59375 36.375 
Q 6.59375 54.828125 13.0625 64.515625 
Q 19.53125 74.21875 31.78125 74.21875 
z
" id="DejaVuSans-48"/>
       </defs>
       <use xlink:href="#DejaVuSans-45"/>
       <use x="36.083984" xlink:href="#DejaVuSans-50"/>
       <use x="99.707031" xlink:href="#DejaVuSans-48"/>
      </g>
     </g>
    </g>
    <g id="xtick_3">
     <g id="line2d_3">
      <g>
       <use style="stroke:#000000;stroke-width:0.8;" x="253.336667" xlink:href="#m0968a3101a" y="339.582"/>
      </g>
     </g>
     <g id="text_3">
      <!-- -15 -->
      <g transform="translate(232.920651 365.578094)scale(0.25 -0.25)">
       <defs>
        <path d="M 12.40625 8.296875 
L 28.515625 8.296875 
L 28.515625 63.921875 
L 10.984375 60.40625 
L 10.984375 69.390625 
L 28.421875 72.90625 
L 38.28125 72.90625 
L 38.28125 8.296875 
L 54.390625 8.296875 
L 54.390625 0 
L 12.40625 0 
z
" id="DejaVuSans-49"/>
       </defs>
       <use xlink:href="#DejaVuSans-45"/>
       <use x="36.083984" xlink:href="#DejaVuSans-49"/>
       <use x="99.707031" xlink:href="#DejaVuSans-53"/>
      </g>
     </g>
    </g>
    <g id="xtick_4">
     <g id="line2d_4">
      <g>
       <use style="stroke:#000000;stroke-width:0.8;" x="333.33" xlink:href="#m0968a3101a" y="339.582"/>
      </g>
     </g>
     <g id="text_4">
      <!-- -10 -->
      <g transform="translate(312.913984 365.578094)scale(0.25 -0.25)">
       <use xlink:href="#DejaVuSans-45"/>
       <use x="36.083984" xlink:href="#DejaVuSans-49"/>
       <use x="99.707031" xlink:href="#DejaVuSans-48"/>
      </g>
     </g>
    </g>
    <g id="xtick_5">
     <g id="line2d_5">
      <g>
       <use style="stroke:#000000;stroke-width:0.8;" x="413.323333" xlink:href="#m0968a3101a" y="339.582"/>
      </g>
     </g>
     <g id="text_5">
      <!-- -5 -->
      <g transform="translate(400.860443 365.578094)scale(0.25 -0.25)">
       <use xlink:href="#DejaVuSans-45"/>
       <use x="36.083984" xlink:href="#DejaVuSans-53"/>
      </g>
     </g>
    </g>
    <g id="xtick_6">
     <g id="line2d_6">
      <g>
       <use style="stroke:#000000;stroke-width:0.8;" x="493.316667" xlink:href="#m0968a3101a" y="339.582"/>
      </g>
     </g>
     <g id="text_6">
      <!-- 0 -->
      <g transform="translate(485.363542 365.578094)scale(0.25 -0.25)">
       <use xlink:href="#DejaVuSans-48"/>
      </g>
     </g>
    </g>
    <g id="xtick_7">
     <g id="line2d_7">
      <g>
       <use style="stroke:#000000;stroke-width:0.8;" x="573.31" xlink:href="#m0968a3101a" y="339.582"/>
      </g>
     </g>
     <g id="text_7">
      <!-- 5 -->
      <g transform="translate(565.356875 365.578094)scale(0.25 -0.25)">
       <use xlink:href="#DejaVuSans-53"/>
      </g>
     </g>
    </g>
    <g id="xtick_8">
     <g id="line2d_8">
      <g>
       <use style="stroke:#000000;stroke-width:0.8;" x="653.303333" xlink:href="#m0968a3101a" y="339.582"/>
      </g>
     </g>
     <g id="text_8">
      <!-- 10 -->
      <g transform="translate(637.397083 365.578094)scale(0.25 -0.25)">
       <use xlink:href="#DejaVuSans-49"/>
       <use x="63.623047" xlink:href="#DejaVuSans-48"/>
      </g>
     </g>
    </g>
    <g id="xtick_9">
     <g id="line2d_9">
      <g>
       <use style="stroke:#000000;stroke-width:0.8;" x="733.296667" xlink:href="#m0968a3101a" y="339.582"/>
      </g>
     </g>
     <g id="text_9">
      <!-- 15 -->
      <g transform="translate(717.390417 365.578094)scale(0.25 -0.25)">
       <use xlink:href="#DejaVuSans-49"/>
       <use x="63.623047" xlink:href="#DejaVuSans-53"/>
      </g>
     </g>
    </g>
    <g id="xtick_10">
     <g id="line2d_10">
      <g>
       <use style="stroke:#000000;stroke-width:0.8;" x="813.29" xlink:href="#m0968a3101a" y="339.582"/>
      </g>
     </g>
     <g id="text_10">
      <!-- 20 -->
      <g transform="translate(797.38375 365.578094)scale(0.25 -0.25)">
       <use xlink:href="#DejaVuSans-50"/>
       <use x="63.623047" xlink:href="#DejaVuSans-48"/>
      </g>
     </g>
    </g>
    <g id="xtick_11">
     <g id="line2d_11">
      <g>
       <use style="stroke:#000000;stroke-width:0.8;" x="893.283333" xlink:href="#m0968a3101a" y="339.582"/>
      </g>
     </g>
     <g id="text_11">
      <!-- 25 -->
      <g transform="translate(877.377083 365.578094)scale(0.25 -0.25)">
       <use xlink:href="#DejaVuSans-50"/>
       <use x="63.623047" xlink:href="#DejaVuSans-53"/>
      </g>
     </g>
    </g>
    <g id="xtick_12">
     <g id="line2d_12">
      <g>
       <use style="stroke:#000000;stroke-width:0.8;" x="973.276667" xlink:href="#m0968a3101a" y="339.582"/>
      </g>
     </g>
     <g id="text_12">
      <!-- 30 -->
      <g transform="translate(957.370417 365.578094)scale(0.25 -0.25)">
       <defs>
        <path d="M 40.578125 39.3125 
Q 47.65625 37.796875 51.625 33 
Q 55.609375 28.21875 55.609375 21.1875 
Q 55.609375 10.40625 48.1875 4.484375 
Q 40.765625 -1.421875 27.09375 -1.421875 
Q 22.515625 -1.421875 17.65625 -0.515625 
Q 12.796875 0.390625 7.625 2.203125 
L 7.625 11.71875 
Q 11.71875 9.328125 16.59375 8.109375 
Q 21.484375 6.890625 26.8125 6.890625 
Q 36.078125 6.890625 40.9375 10.546875 
Q 45.796875 14.203125 45.796875 21.1875 
Q 45.796875 27.640625 41.28125 31.265625 
Q 36.765625 34.90625 28.71875 34.90625 
L 20.21875 34.90625 
L 20.21875 43.015625 
L 29.109375 43.015625 
Q 36.375 43.015625 40.234375 45.921875 
Q 44.09375 48.828125 44.09375 54.296875 
Q 44.09375 59.90625 40.109375 62.90625 
Q 36.140625 65.921875 28.71875 65.921875 
Q 24.65625 65.921875 20.015625 65.03125 
Q 15.375 64.15625 9.8125 62.3125 
L 9.8125 71.09375 
Q 15.4375 72.65625 20.34375 73.4375 
Q 25.25 74.21875 29.59375 74.21875 
Q 40.828125 74.21875 47.359375 69.109375 
Q 53.90625 64.015625 53.90625 55.328125 
Q 53.90625 49.265625 50.4375 45.09375 
Q 46.96875 40.921875 40.578125 39.3125 
z
" id="DejaVuSans-51"/>
       </defs>
       <use xlink:href="#DejaVuSans-51"/>
       <use x="63.623047" xlink:href="#DejaVuSans-48"/>
      </g>
     </g>
    </g>
    <g id="xtick_13">
     <g id="line2d_13">
      <g>
       <use style="stroke:#000000;stroke-width:0.8;" x="1053.27" xlink:href="#m0968a3101a" y="339.582"/>
      </g>
     </g>
     <g id="text_13">
      <!-- 35 -->
      <g transform="translate(1037.36375 365.578094)scale(0.25 -0.25)">
       <use xlink:href="#DejaVuSans-51"/>
       <use x="63.623047" xlink:href="#DejaVuSans-53"/>
      </g>
     </g>
    </g>
    <g id="text_14">
     <!-- Outdoor air temperature $(^{0}C)$ -->
     <g transform="translate(397.99 396.617312)scale(0.24 -0.24)">
      <defs>
       <path d="M 39.40625 66.21875 
Q 28.65625 66.21875 22.328125 58.203125 
Q 16.015625 50.203125 16.015625 36.375 
Q 16.015625 22.609375 22.328125 14.59375 
Q 28.65625 6.59375 39.40625 6.59375 
Q 50.140625 6.59375 56.421875 14.59375 
Q 62.703125 22.609375 62.703125 36.375 
Q 62.703125 50.203125 56.421875 58.203125 
Q 50.140625 66.21875 39.40625 66.21875 
z
M 39.40625 74.21875 
Q 54.734375 74.21875 63.90625 63.9375 
Q 73.09375 53.65625 73.09375 36.375 
Q 73.09375 19.140625 63.90625 8.859375 
Q 54.734375 -1.421875 39.40625 -1.421875 
Q 24.03125 -1.421875 14.8125 8.828125 
Q 5.609375 19.09375 5.609375 36.375 
Q 5.609375 53.65625 14.8125 63.9375 
Q 24.03125 74.21875 39.40625 74.21875 
z
" id="DejaVuSans-79"/>
       <path d="M 8.5 21.578125 
L 8.5 54.6875 
L 17.484375 54.6875 
L 17.484375 21.921875 
Q 17.484375 14.15625 20.5 10.265625 
Q 23.53125 6.390625 29.59375 6.390625 
Q 36.859375 6.390625 41.078125 11.03125 
Q 45.3125 15.671875 45.3125 23.6875 
L 45.3125 54.6875 
L 54.296875 54.6875 
L 54.296875 0 
L 45.3125 0 
L 45.3125 8.40625 
Q 42.046875 3.421875 37.71875 1 
Q 33.40625 -1.421875 27.6875 -1.421875 
Q 18.265625 -1.421875 13.375 4.4375 
Q 8.5 10.296875 8.5 21.578125 
z
M 31.109375 56 
z
" id="DejaVuSans-117"/>
       <path d="M 18.3125 70.21875 
L 18.3125 54.6875 
L 36.8125 54.6875 
L 36.8125 47.703125 
L 18.3125 47.703125 
L 18.3125 18.015625 
Q 18.3125 11.328125 20.140625 9.421875 
Q 21.96875 7.515625 27.59375 7.515625 
L 36.8125 7.515625 
L 36.8125 0 
L 27.59375 0 
Q 17.1875 0 13.234375 3.875 
Q 9.28125 7.765625 9.28125 18.015625 
L 9.28125 47.703125 
L 2.6875 47.703125 
L 2.6875 54.6875 
L 9.28125 54.6875 
L 9.28125 70.21875 
z
" id="DejaVuSans-116"/>
       <path d="M 45.40625 46.390625 
L 45.40625 75.984375 
L 54.390625 75.984375 
L 54.390625 0 
L 45.40625 0 
L 45.40625 8.203125 
Q 42.578125 3.328125 38.25 0.953125 
Q 33.9375 -1.421875 27.875 -1.421875 
Q 17.96875 -1.421875 11.734375 6.484375 
Q 5.515625 14.40625 5.515625 27.296875 
Q 5.515625 40.1875 11.734375 48.09375 
Q 17.96875 56 27.875 56 
Q 33.9375 56 38.25 53.625 
Q 42.578125 51.265625 45.40625 46.390625 
z
M 14.796875 27.296875 
Q 14.796875 17.390625 18.875 11.75 
Q 22.953125 6.109375 30.078125 6.109375 
Q 37.203125 6.109375 41.296875 11.75 
Q 45.40625 17.390625 45.40625 27.296875 
Q 45.40625 37.203125 41.296875 42.84375 
Q 37.203125 48.484375 30.078125 48.484375 
Q 22.953125 48.484375 18.875 42.84375 
Q 14.796875 37.203125 14.796875 27.296875 
z
" id="DejaVuSans-100"/>
       <path d="M 30.609375 48.390625 
Q 23.390625 48.390625 19.1875 42.75 
Q 14.984375 37.109375 14.984375 27.296875 
Q 14.984375 17.484375 19.15625 11.84375 
Q 23.34375 6.203125 30.609375 6.203125 
Q 37.796875 6.203125 41.984375 11.859375 
Q 46.1875 17.53125 46.1875 27.296875 
Q 46.1875 37.015625 41.984375 42.703125 
Q 37.796875 48.390625 30.609375 48.390625 
z
M 30.609375 56 
Q 42.328125 56 49.015625 48.375 
Q 55.71875 40.765625 55.71875 27.296875 
Q 55.71875 13.875 49.015625 6.21875 
Q 42.328125 -1.421875 30.609375 -1.421875 
Q 18.84375 -1.421875 12.171875 6.21875 
Q 5.515625 13.875 5.515625 27.296875 
Q 5.515625 40.765625 12.171875 48.375 
Q 18.84375 56 30.609375 56 
z
" id="DejaVuSans-111"/>
       <path d="M 41.109375 46.296875 
Q 39.59375 47.171875 37.8125 47.578125 
Q 36.03125 48 33.890625 48 
Q 26.265625 48 22.1875 43.046875 
Q 18.109375 38.09375 18.109375 28.8125 
L 18.109375 0 
L 9.078125 0 
L 9.078125 54.6875 
L 18.109375 54.6875 
L 18.109375 46.1875 
Q 20.953125 51.171875 25.484375 53.578125 
Q 30.03125 56 36.53125 56 
Q 37.453125 56 38.578125 55.875 
Q 39.703125 55.765625 41.0625 55.515625 
z
" id="DejaVuSans-114"/>
       <path id="DejaVuSans-32"/>
       <path d="M 34.28125 27.484375 
Q 23.390625 27.484375 19.1875 25 
Q 14.984375 22.515625 14.984375 16.5 
Q 14.984375 11.71875 18.140625 8.90625 
Q 21.296875 6.109375 26.703125 6.109375 
Q 34.1875 6.109375 38.703125 11.40625 
Q 43.21875 16.703125 43.21875 25.484375 
L 43.21875 27.484375 
z
M 52.203125 31.203125 
L 52.203125 0 
L 43.21875 0 
L 43.21875 8.296875 
Q 40.140625 3.328125 35.546875 0.953125 
Q 30.953125 -1.421875 24.3125 -1.421875 
Q 15.921875 -1.421875 10.953125 3.296875 
Q 6 8.015625 6 15.921875 
Q 6 25.140625 12.171875 29.828125 
Q 18.359375 34.515625 30.609375 34.515625 
L 43.21875 34.515625 
L 43.21875 35.40625 
Q 43.21875 41.609375 39.140625 45 
Q 35.0625 48.390625 27.6875 48.390625 
Q 23 48.390625 18.546875 47.265625 
Q 14.109375 46.140625 10.015625 43.890625 
L 10.015625 52.203125 
Q 14.9375 54.109375 19.578125 55.046875 
Q 24.21875 56 28.609375 56 
Q 40.484375 56 46.34375 49.84375 
Q 52.203125 43.703125 52.203125 31.203125 
z
" id="DejaVuSans-97"/>
       <path d="M 9.421875 54.6875 
L 18.40625 54.6875 
L 18.40625 0 
L 9.421875 0 
z
M 9.421875 75.984375 
L 18.40625 75.984375 
L 18.40625 64.59375 
L 9.421875 64.59375 
z
" id="DejaVuSans-105"/>
       <path d="M 56.203125 29.59375 
L 56.203125 25.203125 
L 14.890625 25.203125 
Q 15.484375 15.921875 20.484375 11.0625 
Q 25.484375 6.203125 34.421875 6.203125 
Q 39.59375 6.203125 44.453125 7.46875 
Q 49.3125 8.734375 54.109375 11.28125 
L 54.109375 2.78125 
Q 49.265625 0.734375 44.1875 -0.34375 
Q 39.109375 -1.421875 33.890625 -1.421875 
Q 20.796875 -1.421875 13.15625 6.1875 
Q 5.515625 13.8125 5.515625 26.8125 
Q 5.515625 40.234375 12.765625 48.109375 
Q 20.015625 56 32.328125 56 
Q 43.359375 56 49.78125 48.890625 
Q 56.203125 41.796875 56.203125 29.59375 
z
M 47.21875 32.234375 
Q 47.125 39.59375 43.09375 43.984375 
Q 39.0625 48.390625 32.421875 48.390625 
Q 24.90625 48.390625 20.390625 44.140625 
Q 15.875 39.890625 15.1875 32.171875 
z
" id="DejaVuSans-101"/>
       <path d="M 52 44.1875 
Q 55.375 50.25 60.0625 53.125 
Q 64.75 56 71.09375 56 
Q 79.640625 56 84.28125 50.015625 
Q 88.921875 44.046875 88.921875 33.015625 
L 88.921875 0 
L 79.890625 0 
L 79.890625 32.71875 
Q 79.890625 40.578125 77.09375 44.375 
Q 74.3125 48.1875 68.609375 48.1875 
Q 61.625 48.1875 57.5625 43.546875 
Q 53.515625 38.921875 53.515625 30.90625 
L 53.515625 0 
L 44.484375 0 
L 44.484375 32.71875 
Q 44.484375 40.625 41.703125 44.40625 
Q 38.921875 48.1875 33.109375 48.1875 
Q 26.21875 48.1875 22.15625 43.53125 
Q 18.109375 38.875 18.109375 30.90625 
L 18.109375 0 
L 9.078125 0 
L 9.078125 54.6875 
L 18.109375 54.6875 
L 18.109375 46.1875 
Q 21.1875 51.21875 25.484375 53.609375 
Q 29.78125 56 35.6875 56 
Q 41.65625 56 45.828125 52.96875 
Q 50 49.953125 52 44.1875 
z
" id="DejaVuSans-109"/>
       <path d="M 18.109375 8.203125 
L 18.109375 -20.796875 
L 9.078125 -20.796875 
L 9.078125 54.6875 
L 18.109375 54.6875 
L 18.109375 46.390625 
Q 20.953125 51.265625 25.265625 53.625 
Q 29.59375 56 35.59375 56 
Q 45.5625 56 51.78125 48.09375 
Q 58.015625 40.1875 58.015625 27.296875 
Q 58.015625 14.40625 51.78125 6.484375 
Q 45.5625 -1.421875 35.59375 -1.421875 
Q 29.59375 -1.421875 25.265625 0.953125 
Q 20.953125 3.328125 18.109375 8.203125 
z
M 48.6875 27.296875 
Q 48.6875 37.203125 44.609375 42.84375 
Q 40.53125 48.484375 33.40625 48.484375 
Q 26.265625 48.484375 22.1875 42.84375 
Q 18.109375 37.203125 18.109375 27.296875 
Q 18.109375 17.390625 22.1875 11.75 
Q 26.265625 6.109375 33.40625 6.109375 
Q 40.53125 6.109375 44.609375 11.75 
Q 48.6875 17.390625 48.6875 27.296875 
z
" id="DejaVuSans-112"/>
       <path d="M 31 75.875 
Q 24.46875 64.65625 21.28125 53.65625 
Q 18.109375 42.671875 18.109375 31.390625 
Q 18.109375 20.125 21.3125 9.0625 
Q 24.515625 -2 31 -13.1875 
L 23.1875 -13.1875 
Q 15.875 -1.703125 12.234375 9.375 
Q 8.59375 20.453125 8.59375 31.390625 
Q 8.59375 42.28125 12.203125 53.3125 
Q 15.828125 64.359375 23.1875 75.875 
z
" id="DejaVuSans-40"/>
       <path d="M 69.484375 67.28125 
L 67.484375 56.890625 
Q 62.796875 61.625 57.546875 63.921875 
Q 52.296875 66.21875 46.1875 66.21875 
Q 37.84375 66.21875 31.515625 62.203125 
Q 25.203125 58.203125 20.609375 50 
Q 17.671875 44.734375 16.125 38.84375 
Q 14.59375 32.953125 14.59375 27 
Q 14.59375 17.046875 19.75 11.8125 
Q 24.90625 6.59375 34.71875 6.59375 
Q 41.5 6.59375 47.75 8.765625 
Q 54 10.9375 59.90625 15.28125 
L 57.625 3.609375 
Q 51.8125 1.125 45.875 -0.140625 
Q 39.9375 -1.421875 33.984375 -1.421875 
Q 19.96875 -1.421875 12.078125 6.1875 
Q 4.203125 13.8125 4.203125 27.390625 
Q 4.203125 36.078125 7.203125 44.46875 
Q 10.203125 52.875 15.828125 59.8125 
Q 21.78125 67.1875 29.421875 70.703125 
Q 37.0625 74.21875 47.21875 74.21875 
Q 53.46875 74.21875 59.0625 72.484375 
Q 64.65625 70.75 69.484375 67.28125 
z
" id="DejaVuSans-Oblique-67"/>
       <path d="M 8.015625 75.875 
L 15.828125 75.875 
Q 23.140625 64.359375 26.78125 53.3125 
Q 30.421875 42.28125 30.421875 31.390625 
Q 30.421875 20.453125 26.78125 9.375 
Q 23.140625 -1.703125 15.828125 -13.1875 
L 8.015625 -13.1875 
Q 14.5 -2 17.703125 9.0625 
Q 20.90625 20.125 20.90625 31.390625 
Q 20.90625 42.671875 17.703125 53.65625 
Q 14.5 64.65625 8.015625 75.875 
z
" id="DejaVuSans-41"/>
      </defs>
      <use transform="translate(0 0.765625)" xlink:href="#DejaVuSans-79"/>
      <use transform="translate(78.710938 0.765625)" xlink:href="#DejaVuSans-117"/>
      <use transform="translate(142.089844 0.765625)" xlink:href="#DejaVuSans-116"/>
      <use transform="translate(181.298828 0.765625)" xlink:href="#DejaVuSans-100"/>
      <use transform="translate(244.775391 0.765625)" xlink:href="#DejaVuSans-111"/>
      <use transform="translate(305.957031 0.765625)" xlink:href="#DejaVuSans-111"/>
      <use transform="translate(367.138672 0.765625)" xlink:href="#DejaVuSans-114"/>
      <use transform="translate(408.251953 0.765625)" xlink:href="#DejaVuSans-32"/>
      <use transform="translate(440.039062 0.765625)" xlink:href="#DejaVuSans-97"/>
      <use transform="translate(501.318359 0.765625)" xlink:href="#DejaVuSans-105"/>
      <use transform="translate(529.101562 0.765625)" xlink:href="#DejaVuSans-114"/>
      <use transform="translate(570.214844 0.765625)" xlink:href="#DejaVuSans-32"/>
      <use transform="translate(602.001953 0.765625)" xlink:href="#DejaVuSans-116"/>
      <use transform="translate(641.210938 0.765625)" xlink:href="#DejaVuSans-101"/>
      <use transform="translate(702.734375 0.765625)" xlink:href="#DejaVuSans-109"/>
      <use transform="translate(800.146484 0.765625)" xlink:href="#DejaVuSans-112"/>
      <use transform="translate(863.623047 0.765625)" xlink:href="#DejaVuSans-101"/>
      <use transform="translate(925.146484 0.765625)" xlink:href="#DejaVuSans-114"/>
      <use transform="translate(966.259766 0.765625)" xlink:href="#DejaVuSans-97"/>
      <use transform="translate(1027.539062 0.765625)" xlink:href="#DejaVuSans-116"/>
      <use transform="translate(1066.748047 0.765625)" xlink:href="#DejaVuSans-117"/>
      <use transform="translate(1130.126953 0.765625)" xlink:href="#DejaVuSans-114"/>
      <use transform="translate(1171.240234 0.765625)" xlink:href="#DejaVuSans-101"/>
      <use transform="translate(1232.763672 0.765625)" xlink:href="#DejaVuSans-32"/>
      <use transform="translate(1264.550781 0.765625)" xlink:href="#DejaVuSans-40"/>
      <use transform="translate(1304.521484 39.046875)scale(0.7)" xlink:href="#DejaVuSans-48"/>
      <use transform="translate(1351.791992 0.765625)" xlink:href="#DejaVuSans-Oblique-67"/>
      <use transform="translate(1421.616211 0.765625)" xlink:href="#DejaVuSans-41"/>
     </g>
    </g>
   </g>
   <g id="matplotlib.axis_2">
    <g id="ytick_1">
     <g id="line2d_14">
      <defs>
       <path d="M 0 0 
L -3.5 0 
" id="m3bc62c24ff" style="stroke:#000000;stroke-width:0.8;"/>
      </defs>
      <g>
       <use style="stroke:#000000;stroke-width:0.8;" x="93.35" xlink:href="#m3bc62c24ff" y="307.6758"/>
      </g>
     </g>
     <g id="text_15">
      <!-- 12 -->
      <g transform="translate(54.5375 317.173847)scale(0.25 -0.25)">
       <use xlink:href="#DejaVuSans-49"/>
       <use x="63.623047" xlink:href="#DejaVuSans-50"/>
      </g>
     </g>
    </g>
    <g id="ytick_2">
     <g id="line2d_15">
      <g>
       <use style="stroke:#000000;stroke-width:0.8;" x="93.35" xlink:href="#m3bc62c24ff" y="259.8165"/>
      </g>
     </g>
     <g id="text_16">
      <!-- 15 -->
      <g transform="translate(54.5375 269.314547)scale(0.25 -0.25)">
       <use xlink:href="#DejaVuSans-49"/>
       <use x="63.623047" xlink:href="#DejaVuSans-53"/>
      </g>
     </g>
    </g>
    <g id="ytick_3">
     <g id="line2d_16">
      <g>
       <use style="stroke:#000000;stroke-width:0.8;" x="93.35" xlink:href="#m3bc62c24ff" y="211.9572"/>
      </g>
     </g>
     <g id="text_17">
      <!-- 18 -->
      <g transform="translate(54.5375 221.455247)scale(0.25 -0.25)">
       <defs>
        <path d="M 31.78125 34.625 
Q 24.75 34.625 20.71875 30.859375 
Q 16.703125 27.09375 16.703125 20.515625 
Q 16.703125 13.921875 20.71875 10.15625 
Q 24.75 6.390625 31.78125 6.390625 
Q 38.8125 6.390625 42.859375 10.171875 
Q 46.921875 13.96875 46.921875 20.515625 
Q 46.921875 27.09375 42.890625 30.859375 
Q 38.875 34.625 31.78125 34.625 
z
M 21.921875 38.8125 
Q 15.578125 40.375 12.03125 44.71875 
Q 8.5 49.078125 8.5 55.328125 
Q 8.5 64.0625 14.71875 69.140625 
Q 20.953125 74.21875 31.78125 74.21875 
Q 42.671875 74.21875 48.875 69.140625 
Q 55.078125 64.0625 55.078125 55.328125 
Q 55.078125 49.078125 51.53125 44.71875 
Q 48 40.375 41.703125 38.8125 
Q 48.828125 37.15625 52.796875 32.3125 
Q 56.78125 27.484375 56.78125 20.515625 
Q 56.78125 9.90625 50.3125 4.234375 
Q 43.84375 -1.421875 31.78125 -1.421875 
Q 19.734375 -1.421875 13.25 4.234375 
Q 6.78125 9.90625 6.78125 20.515625 
Q 6.78125 27.484375 10.78125 32.3125 
Q 14.796875 37.15625 21.921875 38.8125 
z
M 18.3125 54.390625 
Q 18.3125 48.734375 21.84375 45.5625 
Q 25.390625 42.390625 31.78125 42.390625 
Q 38.140625 42.390625 41.71875 45.5625 
Q 45.3125 48.734375 45.3125 54.390625 
Q 45.3125 60.0625 41.71875 63.234375 
Q 38.140625 66.40625 31.78125 66.40625 
Q 25.390625 66.40625 21.84375 63.234375 
Q 18.3125 60.0625 18.3125 54.390625 
z
" id="DejaVuSans-56"/>
       </defs>
       <use xlink:href="#DejaVuSans-49"/>
       <use x="63.623047" xlink:href="#DejaVuSans-56"/>
      </g>
     </g>
    </g>
    <g id="ytick_4">
     <g id="line2d_17">
      <g>
       <use style="stroke:#000000;stroke-width:0.8;" x="93.35" xlink:href="#m3bc62c24ff" y="164.0979"/>
      </g>
     </g>
     <g id="text_18">
      <!-- 21 -->
      <g transform="translate(54.5375 173.595947)scale(0.25 -0.25)">
       <use xlink:href="#DejaVuSans-50"/>
       <use x="63.623047" xlink:href="#DejaVuSans-49"/>
      </g>
     </g>
    </g>
    <g id="ytick_5">
     <g id="line2d_18">
      <g>
       <use style="stroke:#000000;stroke-width:0.8;" x="93.35" xlink:href="#m3bc62c24ff" y="116.2386"/>
      </g>
     </g>
     <g id="text_19">
      <!-- 24 -->
      <g transform="translate(54.5375 125.736647)scale(0.25 -0.25)">
       <defs>
        <path d="M 37.796875 64.3125 
L 12.890625 25.390625 
L 37.796875 25.390625 
z
M 35.203125 72.90625 
L 47.609375 72.90625 
L 47.609375 25.390625 
L 58.015625 25.390625 
L 58.015625 17.1875 
L 47.609375 17.1875 
L 47.609375 0 
L 37.796875 0 
L 37.796875 17.1875 
L 4.890625 17.1875 
L 4.890625 26.703125 
z
" id="DejaVuSans-52"/>
       </defs>
       <use xlink:href="#DejaVuSans-50"/>
       <use x="63.623047" xlink:href="#DejaVuSans-52"/>
      </g>
     </g>
    </g>
    <g id="ytick_6">
     <g id="line2d_19">
      <g>
       <use style="stroke:#000000;stroke-width:0.8;" x="93.35" xlink:href="#m3bc62c24ff" y="68.3793"/>
      </g>
     </g>
     <g id="text_20">
      <!-- 27 -->
      <g transform="translate(54.5375 77.877347)scale(0.25 -0.25)">
       <defs>
        <path d="M 8.203125 72.90625 
L 55.078125 72.90625 
L 55.078125 68.703125 
L 28.609375 0 
L 18.3125 0 
L 43.21875 64.59375 
L 8.203125 64.59375 
z
" id="DejaVuSans-55"/>
       </defs>
       <use xlink:href="#DejaVuSans-50"/>
       <use x="63.623047" xlink:href="#DejaVuSans-55"/>
      </g>
     </g>
    </g>
    <g id="ytick_7">
     <g id="line2d_20">
      <g>
       <use style="stroke:#000000;stroke-width:0.8;" x="93.35" xlink:href="#m3bc62c24ff" y="20.52"/>
      </g>
     </g>
     <g id="text_21">
      <!-- 30 -->
      <g transform="translate(54.5375 30.018047)scale(0.25 -0.25)">
       <use xlink:href="#DejaVuSans-51"/>
       <use x="63.623047" xlink:href="#DejaVuSans-48"/>
      </g>
     </g>
    </g>
    <g id="text_22">
     <!-- Indoor air temperature $(^{0}C)$ -->
     <g transform="translate(45.4975 344.811)rotate(-90)scale(0.24 -0.24)">
      <defs>
       <path d="M 9.8125 72.90625 
L 19.671875 72.90625 
L 19.671875 0 
L 9.8125 0 
z
" id="DejaVuSans-73"/>
       <path d="M 54.890625 33.015625 
L 54.890625 0 
L 45.90625 0 
L 45.90625 32.71875 
Q 45.90625 40.484375 42.875 44.328125 
Q 39.84375 48.1875 33.796875 48.1875 
Q 26.515625 48.1875 22.3125 43.546875 
Q 18.109375 38.921875 18.109375 30.90625 
L 18.109375 0 
L 9.078125 0 
L 9.078125 54.6875 
L 18.109375 54.6875 
L 18.109375 46.1875 
Q 21.34375 51.125 25.703125 53.5625 
Q 30.078125 56 35.796875 56 
Q 45.21875 56 50.046875 50.171875 
Q 54.890625 44.34375 54.890625 33.015625 
z
" id="DejaVuSans-110"/>
      </defs>
      <use transform="translate(0 0.765625)" xlink:href="#DejaVuSans-73"/>
      <use transform="translate(29.492188 0.765625)" xlink:href="#DejaVuSans-110"/>
      <use transform="translate(92.871094 0.765625)" xlink:href="#DejaVuSans-100"/>
      <use transform="translate(156.347656 0.765625)" xlink:href="#DejaVuSans-111"/>
      <use transform="translate(217.529297 0.765625)" xlink:href="#DejaVuSans-111"/>
      <use transform="translate(278.710938 0.765625)" xlink:href="#DejaVuSans-114"/>
      <use transform="translate(319.824219 0.765625)" xlink:href="#DejaVuSans-32"/>
      <use transform="translate(351.611328 0.765625)" xlink:href="#DejaVuSans-97"/>
      <use transform="translate(412.890625 0.765625)" xlink:href="#DejaVuSans-105"/>
      <use transform="translate(440.673828 0.765625)" xlink:href="#DejaVuSans-114"/>
      <use transform="translate(481.787109 0.765625)" xlink:href="#DejaVuSans-32"/>
      <use transform="translate(513.574219 0.765625)" xlink:href="#DejaVuSans-116"/>
      <use transform="translate(552.783203 0.765625)" xlink:href="#DejaVuSans-101"/>
      <use transform="translate(614.306641 0.765625)" xlink:href="#DejaVuSans-109"/>
      <use transform="translate(711.71875 0.765625)" xlink:href="#DejaVuSans-112"/>
      <use transform="translate(775.195312 0.765625)" xlink:href="#DejaVuSans-101"/>
      <use transform="translate(836.71875 0.765625)" xlink:href="#DejaVuSans-114"/>
      <use transform="translate(877.832031 0.765625)" xlink:href="#DejaVuSans-97"/>
      <use transform="translate(939.111328 0.765625)" xlink:href="#DejaVuSans-116"/>
      <use transform="translate(978.320312 0.765625)" xlink:href="#DejaVuSans-117"/>
      <use transform="translate(1041.699219 0.765625)" xlink:href="#DejaVuSans-114"/>
      <use transform="translate(1082.8125 0.765625)" xlink:href="#DejaVuSans-101"/>
      <use transform="translate(1144.335938 0.765625)" xlink:href="#DejaVuSans-32"/>
      <use transform="translate(1176.123047 0.765625)" xlink:href="#DejaVuSans-40"/>
      <use transform="translate(1216.09375 39.046875)scale(0.7)" xlink:href="#DejaVuSans-48"/>
      <use transform="translate(1263.364258 0.765625)" xlink:href="#DejaVuSans-Oblique-67"/>
      <use transform="translate(1333.188477 0.765625)" xlink:href="#DejaVuSans-41"/>
     </g>
    </g>
   </g>
   <g id="line2d_21">
    <path clip-path="url(#p9bbdf0f329)" d="M 93.35 221.710383 
L 103.046162 220.470487 
L 112.742323 219.242827 
L 122.438485 218.027402 
L 132.134646 216.824212 
L 141.830808 215.633257 
L 151.52697 214.454537 
L 161.223131 213.288053 
L 170.919293 212.133804 
L 180.615455 210.99179 
L 190.311616 209.862011 
L 200.007778 208.744468 
L 209.703939 207.63916 
L 219.400101 206.546087 
L 229.096263 205.465249 
L 238.792424 204.396646 
L 248.488586 203.340279 
L 258.184747 202.296147 
L 267.880909 201.26425 
L 277.577071 200.244588 
L 287.273232 199.237162 
L 296.969394 198.24197 
L 306.665556 197.259014 
L 316.361717 196.288294 
L 326.057879 195.329808 
L 335.75404 194.383557 
L 345.450202 193.449542 
L 355.146364 192.527762 
L 364.842525 191.618218 
L 374.538687 190.720908 
L 384.234848 189.835834 
L 393.93101 188.962995 
L 403.627172 188.102391 
L 413.323333 187.254022 
L 423.019495 186.417889 
L 432.715657 185.59399 
L 442.411818 184.782327 
L 452.10798 183.982899 
L 461.804141 183.195707 
L 471.500303 182.420749 
L 481.196465 181.658027 
L 490.892626 180.90754 
L 500.588788 180.169289 
L 510.284949 179.443272 
L 519.981111 178.729491 
L 529.677273 178.027945 
L 539.373434 177.338634 
L 549.069596 176.661558 
L 558.765758 175.996718 
L 568.461919 175.344112 
L 578.158081 174.703742 
L 587.854242 174.075608 
L 597.550404 173.459708 
L 607.246566 172.856044 
L 616.942727 172.264615 
L 626.638889 171.685421 
L 636.335051 171.118462 
L 646.031212 170.563739 
L 655.727374 170.02125 
L 665.423535 169.490997 
L 675.119697 168.972979 
L 684.815859 168.467197 
L 694.51202 167.973649 
L 704.208182 167.492337 
L 713.904343 167.02326 
L 723.600505 166.566418 
L 733.296667 166.121812 
L 742.992828 165.689441 
L 752.68899 165.269304 
L 762.385152 164.861404 
L 772.081313 164.465738 
L 781.777475 164.082307 
L 791.473636 163.711112 
L 801.169798 163.352152 
L 810.86596 163.005427 
L 820.562121 162.670938 
L 830.258283 162.348683 
L 839.954444 162.038664 
L 849.650606 161.74088 
L 859.346768 161.455331 
L 869.042929 161.182018 
L 878.739091 160.92094 
L 888.435253 160.672097 
L 898.131414 160.435489 
L 907.827576 160.211116 
L 917.523737 159.998979 
L 927.219899 159.799076 
L 936.916061 159.611409 
L 946.612222 159.435978 
L 956.308384 159.272781 
L 966.004545 159.12182 
L 975.700707 158.983094 
L 985.396869 158.856603 
L 995.09303 158.742347 
L 1004.789192 158.640326 
L 1014.485354 158.550541 
L 1024.181515 158.472991 
L 1033.877677 158.407676 
L 1043.573838 158.354597 
L 1053.27 158.313752 
" style="fill:none;stroke:#0000ff;stroke-linecap:square;stroke-width:4;"/>
   </g>
   <g id="line2d_22">
    <path clip-path="url(#p9bbdf0f329)" d="M 93.35 163.206415 
L 103.046162 163.1702 
L 112.742323 163.127928 
L 122.438485 163.079599 
L 132.134646 163.025211 
L 141.830808 162.964766 
L 151.52697 162.898263 
L 161.223131 162.825703 
L 170.919293 162.747085 
L 180.615455 162.662409 
L 190.311616 162.571676 
L 200.007778 162.474885 
L 209.703939 162.372037 
L 219.400101 162.26313 
L 229.096263 162.148167 
L 238.792424 162.027145 
L 248.488586 161.900066 
L 258.184747 161.76693 
L 267.880909 161.627735 
L 277.577071 161.482483 
L 287.273232 161.331174 
L 296.969394 161.173806 
L 306.665556 161.010381 
L 316.361717 160.840899 
L 326.057879 160.665359 
L 335.75404 160.483761 
L 345.450202 160.296106 
L 355.146364 160.102393 
L 364.842525 159.902622 
L 374.538687 159.696794 
L 384.234848 159.484908 
L 393.93101 159.266964 
L 403.627172 159.042963 
L 413.323333 158.812904 
L 423.019495 158.576787 
L 432.715657 158.334613 
L 442.411818 158.086382 
L 452.10798 157.832092 
L 461.804141 157.571745 
L 471.500303 157.30534 
L 481.196465 157.032878 
L 490.892626 156.754358 
L 500.588788 156.469781 
L 510.284949 156.179145 
L 519.981111 155.882453 
L 529.677273 155.579702 
L 539.373434 155.270894 
L 549.069596 154.956028 
L 558.765758 154.635105 
L 568.461919 154.308124 
L 578.158081 153.975085 
L 587.854242 153.635989 
L 597.550404 153.290835 
L 607.246566 152.939623 
L 616.942727 152.582354 
L 626.638889 152.219027 
L 636.335051 151.849643 
L 646.031212 151.474201 
L 655.727374 151.092701 
L 665.423535 150.705144 
L 675.119697 150.311529 
L 684.815859 149.911856 
L 694.51202 149.506126 
L 704.208182 149.094338 
L 713.904343 148.676492 
L 723.600505 148.252589 
L 733.296667 147.822628 
L 742.992828 147.38661 
L 752.68899 146.944534 
L 762.385152 146.4964 
L 772.081313 146.042209 
L 781.777475 145.58196 
L 791.473636 145.115653 
L 801.169798 144.643289 
L 810.86596 144.164867 
L 820.562121 143.680387 
L 830.258283 143.18985 
L 839.954444 142.693255 
L 849.650606 142.190603 
L 859.346768 141.681893 
L 869.042929 141.167125 
L 878.739091 140.6463 
L 888.435253 140.119417 
L 898.131414 139.586476 
L 907.827576 139.047478 
L 917.523737 138.502422 
L 927.219899 137.951308 
L 936.916061 137.394137 
L 946.612222 136.830908 
L 956.308384 136.261622 
L 966.004545 135.686278 
L 975.700707 135.104876 
L 985.396869 134.517417 
L 995.09303 133.9239 
L 1004.789192 133.324325 
L 1014.485354 132.718693 
L 1024.181515 132.107003 
L 1033.877677 131.489256 
L 1043.573838 130.865451 
L 1053.27 130.235588 
" style="fill:none;stroke:#000000;stroke-linecap:square;stroke-width:4;"/>
   </g>
   <g id="line2d_23">
    <path clip-path="url(#p9bbdf0f329)" d="M 93.35 124.373467 
L 103.046162 125.059727 
L 112.742323 125.72953 
L 122.438485 126.382876 
L 132.134646 127.019766 
L 141.830808 127.640199 
L 151.52697 128.244176 
L 161.223131 128.831696 
L 170.919293 129.402759 
L 180.615455 129.957366 
L 190.311616 130.495515 
L 200.007778 131.017209 
L 209.703939 131.522445 
L 219.400101 132.011225 
L 229.096263 132.483549 
L 238.792424 132.939415 
L 248.488586 133.378825 
L 258.184747 133.801779 
L 267.880909 134.208275 
L 277.577071 134.598315 
L 287.273232 134.971899 
L 296.969394 135.329026 
L 306.665556 135.669696 
L 316.361717 135.993909 
L 326.057879 136.301666 
L 335.75404 136.592966 
L 345.450202 136.86781 
L 355.146364 137.126197 
L 364.842525 137.368127 
L 374.538687 137.5936 
L 384.234848 137.802617 
L 393.93101 137.995177 
L 403.627172 138.171281 
L 413.323333 138.330928 
L 423.019495 138.474118 
L 432.715657 138.600852 
L 442.411818 138.711129 
L 452.10798 138.804949 
L 461.804141 138.882313 
L 471.500303 138.94322 
L 481.196465 138.98767 
L 490.892626 139.015664 
L 500.588788 139.027201 
L 510.284949 139.022282 
L 519.981111 139.000905 
L 529.677273 138.963073 
L 539.373434 138.908783 
L 549.069596 138.838037 
L 558.765758 138.750834 
L 568.461919 138.647175 
L 578.158081 138.527059 
L 587.854242 138.390486 
L 597.550404 138.237456 
L 607.246566 138.06797 
L 616.942727 137.882028 
L 626.638889 137.679628 
L 636.335051 137.460772 
L 646.031212 137.225459 
L 655.727374 136.97369 
L 665.423535 136.705464 
L 675.119697 136.420782 
L 684.815859 136.119642 
L 694.51202 135.802046 
L 704.208182 135.467994 
L 713.904343 135.117485 
L 723.600505 134.750519 
L 733.296667 134.367096 
L 742.992828 133.967217 
L 752.68899 133.550881 
L 762.385152 133.118089 
L 772.081313 132.668839 
L 781.777475 132.203134 
L 791.473636 131.720971 
L 801.169798 131.222352 
L 810.86596 130.707276 
L 820.562121 130.175744 
L 830.258283 129.627755 
L 839.954444 129.063309 
L 849.650606 128.482407 
L 859.346768 127.885048 
L 869.042929 127.271232 
L 878.739091 126.64096 
L 888.435253 125.994231 
L 898.131414 125.331045 
L 907.827576 124.651403 
L 917.523737 123.955304 
L 927.219899 123.242749 
L 936.916061 122.513737 
L 946.612222 121.768268 
L 956.308384 121.006342 
L 966.004545 120.22796 
L 975.700707 119.433121 
L 985.396869 118.621826 
L 995.09303 117.794074 
L 1004.789192 116.949865 
L 1014.485354 116.089199 
L 1024.181515 115.212077 
L 1033.877677 114.318499 
L 1043.573838 113.408463 
L 1053.27 112.481971 
" style="fill:none;stroke:#ff0000;stroke-linecap:square;stroke-width:4;"/>
   </g>
   <g id="line2d_24">
    <path clip-path="url(#p9bbdf0f329)" d="M 93.35 180.054443 
L 103.046162 180.054443 
L 112.742323 180.054443 
L 122.438485 180.054443 
L 132.134646 180.054443 
L 141.830808 180.054443 
L 151.52697 180.054443 
L 161.223131 180.054443 
L 170.919293 180.054443 
L 180.615455 180.054443 
L 190.311616 180.054443 
L 200.007778 180.054443 
L 209.703939 180.054443 
L 219.400101 180.054443 
L 229.096263 180.054443 
L 238.792424 180.763761 
L 248.488586 182.066017 
L 258.184747 183.368274 
L 267.880909 184.67053 
L 277.577071 185.972787 
L 287.273232 187.275044 
L 296.969394 188.5773 
L 306.665556 189.879557 
L 316.361717 191.181813 
L 326.057879 192.48407 
L 335.75404 193.786327 
L 345.450202 195.088583 
L 355.146364 196.39084 
L 364.842525 197.693096 
L 374.538687 198.995353 
L 384.234848 200.29761 
L 393.93101 201.599866 
L 403.627172 202.902123 
L 413.323333 204.204379 
L 423.019495 205.506636 
L 432.715657 206.808893 
L 442.411818 208.111149 
L 452.10798 209.413406 
L 461.804141 210.715662 
L 471.500303 212.017919 
L 481.196465 213.320176 
L 490.892626 214.622432 
L 500.588788 215.924689 
L 510.284949 217.226945 
L 519.981111 218.529202 
L 529.677273 219.831459 
L 539.373434 221.133715 
L 549.069596 222.435972 
L 558.765758 223.738228 
L 568.461919 225.040485 
L 578.158081 226.342742 
L 587.854242 227.644998 
L 597.550404 228.947255 
L 607.246566 230.249511 
L 616.942727 231.551768 
L 626.638889 232.854025 
L 636.335051 234.156281 
L 646.031212 235.458538 
L 655.727374 236.760794 
L 665.423535 236.814931 
L 675.119697 236.814931 
L 684.815859 236.814931 
L 694.51202 236.814931 
L 704.208182 236.814931 
L 713.904343 236.814931 
L 723.600505 236.814931 
L 733.296667 236.814931 
L 742.992828 236.814931 
L 752.68899 236.814931 
L 762.385152 236.814931 
L 772.081313 236.814931 
L 781.777475 236.814931 
L 791.473636 236.814931 
L 801.169798 236.814931 
L 810.86596 236.814931 
L 820.562121 236.814931 
L 830.258283 236.814931 
L 839.954444 236.814931 
L 849.650606 236.814931 
L 859.346768 236.814931 
L 869.042929 236.814931 
L 878.739091 236.814931 
L 888.435253 236.814931 
L 898.131414 236.814931 
L 907.827576 236.814931 
L 917.523737 236.814931 
L 927.219899 236.814931 
L 936.916061 236.814931 
L 946.612222 236.814931 
L 956.308384 236.814931 
L 966.004545 236.814931 
L 975.700707 236.814931 
L 985.396869 236.814931 
L 995.09303 236.814931 
L 1004.789192 236.814931 
L 1014.485354 236.814931 
L 1024.181515 236.814931 
L 1033.877677 236.814931 
L 1043.573838 236.814931 
L 1053.27 236.814931 
" style="fill:none;stroke:#000000;stroke-dasharray:14.8,6.4;stroke-dashoffset:0;stroke-width:4;"/>
   </g>
   <g id="patch_3">
    <path d="M 93.35 339.582 
L 93.35 20.52 
" style="fill:none;stroke:#000000;stroke-linecap:square;stroke-linejoin:miter;stroke-width:0.8;"/>
   </g>
   <g id="patch_4">
    <path d="M 1053.27 339.582 
L 1053.27 20.52 
" style="fill:none;stroke:#000000;stroke-linecap:square;stroke-linejoin:miter;stroke-width:0.8;"/>
   </g>
   <g id="patch_5">
    <path d="M 93.35 339.582 
L 1053.27 339.582 
" style="fill:none;stroke:#000000;stroke-linecap:square;stroke-linejoin:miter;stroke-width:0.8;"/>
   </g>
   <g id="patch_6">
    <path d="M 93.35 20.52 
L 1053.27 20.52 
" style="fill:none;stroke:#000000;stroke-linecap:square;stroke-linejoin:miter;stroke-width:0.8;"/>
   </g>
   <g id="text_23">
    <!-- Ideal supply air temperature -->
    <g style="fill:#008000;" transform="translate(358.395885 211.702745)rotate(-347)scale(0.22 -0.22)">
     <defs>
      <path d="M 9.1875 72.90625 
L 27.984375 72.90625 
L 27.984375 0 
L 9.1875 0 
z
" id="DejaVuSans-Bold-73"/>
      <path d="M 45.609375 46.6875 
L 45.609375 75.984375 
L 63.1875 75.984375 
L 63.1875 0 
L 45.609375 0 
L 45.609375 7.90625 
Q 42 3.078125 37.640625 0.828125 
Q 33.296875 -1.421875 27.59375 -1.421875 
Q 17.484375 -1.421875 10.984375 6.609375 
Q 4.5 14.65625 4.5 27.296875 
Q 4.5 39.9375 10.984375 47.96875 
Q 17.484375 56 27.59375 56 
Q 33.25 56 37.625 53.734375 
Q 42 51.46875 45.609375 46.6875 
z
M 34.078125 11.28125 
Q 39.703125 11.28125 42.65625 15.375 
Q 45.609375 19.484375 45.609375 27.296875 
Q 45.609375 35.109375 42.65625 39.203125 
Q 39.703125 43.3125 34.078125 43.3125 
Q 28.515625 43.3125 25.5625 39.203125 
Q 22.609375 35.109375 22.609375 27.296875 
Q 22.609375 19.484375 25.5625 15.375 
Q 28.515625 11.28125 34.078125 11.28125 
z
" id="DejaVuSans-Bold-100"/>
      <path d="M 62.984375 27.484375 
L 62.984375 22.515625 
L 22.125 22.515625 
Q 22.75 16.359375 26.5625 13.28125 
Q 30.375 10.203125 37.203125 10.203125 
Q 42.71875 10.203125 48.5 11.84375 
Q 54.296875 13.484375 60.40625 16.796875 
L 60.40625 3.328125 
Q 54.203125 0.984375 48 -0.21875 
Q 41.796875 -1.421875 35.59375 -1.421875 
Q 20.75 -1.421875 12.515625 6.125 
Q 4.296875 13.671875 4.296875 27.296875 
Q 4.296875 40.671875 12.375 48.328125 
Q 20.453125 56 34.625 56 
Q 47.515625 56 55.25 48.234375 
Q 62.984375 40.484375 62.984375 27.484375 
z
M 45.015625 33.296875 
Q 45.015625 38.28125 42.109375 41.328125 
Q 39.203125 44.390625 34.515625 44.390625 
Q 29.4375 44.390625 26.265625 41.53125 
Q 23.09375 38.671875 22.3125 33.296875 
z
" id="DejaVuSans-Bold-101"/>
      <path d="M 32.90625 24.609375 
Q 27.4375 24.609375 24.671875 22.75 
Q 21.921875 20.90625 21.921875 17.28125 
Q 21.921875 13.96875 24.140625 12.078125 
Q 26.375 10.203125 30.328125 10.203125 
Q 35.25 10.203125 38.625 13.734375 
Q 42 17.28125 42 22.609375 
L 42 24.609375 
z
M 59.625 31.203125 
L 59.625 0 
L 42 0 
L 42 8.109375 
Q 38.484375 3.125 34.078125 0.84375 
Q 29.6875 -1.421875 23.390625 -1.421875 
Q 14.890625 -1.421875 9.59375 3.53125 
Q 4.296875 8.5 4.296875 16.40625 
Q 4.296875 26.03125 10.90625 30.515625 
Q 17.53125 35.015625 31.6875 35.015625 
L 42 35.015625 
L 42 36.375 
Q 42 40.53125 38.71875 42.453125 
Q 35.453125 44.390625 28.515625 44.390625 
Q 22.90625 44.390625 18.0625 43.265625 
Q 13.234375 42.140625 9.078125 39.890625 
L 9.078125 53.21875 
Q 14.703125 54.59375 20.359375 55.296875 
Q 26.03125 56 31.6875 56 
Q 46.484375 56 53.046875 50.171875 
Q 59.625 44.34375 59.625 31.203125 
z
" id="DejaVuSans-Bold-97"/>
      <path d="M 8.40625 75.984375 
L 25.875 75.984375 
L 25.875 0 
L 8.40625 0 
z
" id="DejaVuSans-Bold-108"/>
      <path id="DejaVuSans-Bold-32"/>
      <path d="M 51.125 52.984375 
L 51.125 39.703125 
Q 45.515625 42.046875 40.28125 43.21875 
Q 35.0625 44.390625 30.421875 44.390625 
Q 25.4375 44.390625 23.015625 43.140625 
Q 20.609375 41.890625 20.609375 39.3125 
Q 20.609375 37.203125 22.4375 36.078125 
Q 24.265625 34.96875 29 34.421875 
L 32.078125 33.984375 
Q 45.515625 32.28125 50.140625 28.375 
Q 54.78125 24.46875 54.78125 16.109375 
Q 54.78125 7.375 48.328125 2.96875 
Q 41.890625 -1.421875 29.109375 -1.421875 
Q 23.6875 -1.421875 17.890625 -0.5625 
Q 12.109375 0.296875 6 2 
L 6 15.28125 
Q 11.234375 12.75 16.71875 11.46875 
Q 22.21875 10.203125 27.875 10.203125 
Q 33.015625 10.203125 35.59375 11.609375 
Q 38.1875 13.03125 38.1875 15.828125 
Q 38.1875 18.171875 36.40625 19.3125 
Q 34.625 20.453125 29.296875 21.09375 
L 26.21875 21.484375 
Q 14.546875 22.953125 9.859375 26.90625 
Q 5.171875 30.859375 5.171875 38.921875 
Q 5.171875 47.609375 11.125 51.796875 
Q 17.09375 56 29.390625 56 
Q 34.234375 56 39.546875 55.265625 
Q 44.875 54.546875 51.125 52.984375 
z
" id="DejaVuSans-Bold-115"/>
      <path d="M 7.8125 21.296875 
L 7.8125 54.6875 
L 25.390625 54.6875 
L 25.390625 49.21875 
Q 25.390625 44.78125 25.34375 38.0625 
Q 25.296875 31.34375 25.296875 29.109375 
Q 25.296875 22.515625 25.640625 19.609375 
Q 25.984375 16.703125 26.8125 15.375 
Q 27.875 13.671875 29.609375 12.734375 
Q 31.34375 11.8125 33.59375 11.8125 
Q 39.0625 11.8125 42.1875 16.015625 
Q 45.3125 20.21875 45.3125 27.6875 
L 45.3125 54.6875 
L 62.796875 54.6875 
L 62.796875 0 
L 45.3125 0 
L 45.3125 7.90625 
Q 41.359375 3.125 36.9375 0.84375 
Q 32.515625 -1.421875 27.203125 -1.421875 
Q 17.71875 -1.421875 12.765625 4.390625 
Q 7.8125 10.203125 7.8125 21.296875 
z
" id="DejaVuSans-Bold-117"/>
      <path d="M 25.875 7.90625 
L 25.875 -20.796875 
L 8.40625 -20.796875 
L 8.40625 54.6875 
L 25.875 54.6875 
L 25.875 46.6875 
Q 29.5 51.46875 33.890625 53.734375 
Q 38.28125 56 44 56 
Q 54.109375 56 60.59375 47.96875 
Q 67.09375 39.9375 67.09375 27.296875 
Q 67.09375 14.65625 60.59375 6.609375 
Q 54.109375 -1.421875 44 -1.421875 
Q 38.28125 -1.421875 33.890625 0.84375 
Q 29.5 3.125 25.875 7.90625 
z
M 37.5 43.3125 
Q 31.890625 43.3125 28.875 39.1875 
Q 25.875 35.0625 25.875 27.296875 
Q 25.875 19.53125 28.875 15.40625 
Q 31.890625 11.28125 37.5 11.28125 
Q 43.109375 11.28125 46.0625 15.375 
Q 49.03125 19.484375 49.03125 27.296875 
Q 49.03125 35.109375 46.0625 39.203125 
Q 43.109375 43.3125 37.5 43.3125 
z
" id="DejaVuSans-Bold-112"/>
      <path d="M 1.21875 54.6875 
L 18.703125 54.6875 
L 33.40625 17.578125 
L 45.90625 54.6875 
L 63.375 54.6875 
L 40.375 -5.171875 
Q 36.921875 -14.3125 32.296875 -17.9375 
Q 27.6875 -21.578125 20.125 -21.578125 
L 10.015625 -21.578125 
L 10.015625 -10.109375 
L 15.484375 -10.109375 
Q 19.921875 -10.109375 21.9375 -8.6875 
Q 23.96875 -7.28125 25.09375 -3.609375 
L 25.59375 -2.09375 
z
" id="DejaVuSans-Bold-121"/>
      <path d="M 8.40625 54.6875 
L 25.875 54.6875 
L 25.875 0 
L 8.40625 0 
z
M 8.40625 75.984375 
L 25.875 75.984375 
L 25.875 61.71875 
L 8.40625 61.71875 
z
" id="DejaVuSans-Bold-105"/>
      <path d="M 49.03125 39.796875 
Q 46.734375 40.875 44.453125 41.375 
Q 42.1875 41.890625 39.890625 41.890625 
Q 33.15625 41.890625 29.515625 37.5625 
Q 25.875 33.25 25.875 25.203125 
L 25.875 0 
L 8.40625 0 
L 8.40625 54.6875 
L 25.875 54.6875 
L 25.875 45.703125 
Q 29.25 51.078125 33.609375 53.53125 
Q 37.984375 56 44.09375 56 
Q 44.96875 56 45.984375 55.921875 
Q 47.015625 55.859375 48.96875 55.609375 
z
" id="DejaVuSans-Bold-114"/>
      <path d="M 27.484375 70.21875 
L 27.484375 54.6875 
L 45.515625 54.6875 
L 45.515625 42.1875 
L 27.484375 42.1875 
L 27.484375 19 
Q 27.484375 15.1875 29 13.84375 
Q 30.515625 12.5 35.015625 12.5 
L 44 12.5 
L 44 0 
L 29 0 
Q 18.65625 0 14.328125 4.3125 
Q 10.015625 8.640625 10.015625 19 
L 10.015625 42.1875 
L 1.3125 42.1875 
L 1.3125 54.6875 
L 10.015625 54.6875 
L 10.015625 70.21875 
z
" id="DejaVuSans-Bold-116"/>
      <path d="M 59.078125 45.609375 
Q 62.40625 50.6875 66.96875 53.34375 
Q 71.53125 56 77 56 
Q 86.421875 56 91.359375 50.1875 
Q 96.296875 44.390625 96.296875 33.296875 
L 96.296875 0 
L 78.71875 0 
L 78.71875 28.515625 
Q 78.765625 29.15625 78.78125 29.828125 
Q 78.8125 30.515625 78.8125 31.78125 
Q 78.8125 37.59375 77.09375 40.203125 
Q 75.390625 42.828125 71.578125 42.828125 
Q 66.609375 42.828125 63.890625 38.71875 
Q 61.1875 34.625 61.078125 26.859375 
L 61.078125 0 
L 43.5 0 
L 43.5 28.515625 
Q 43.5 37.59375 41.9375 40.203125 
Q 40.375 42.828125 36.375 42.828125 
Q 31.34375 42.828125 28.609375 38.703125 
Q 25.875 34.578125 25.875 26.90625 
L 25.875 0 
L 8.296875 0 
L 8.296875 54.6875 
L 25.875 54.6875 
L 25.875 46.6875 
Q 29.109375 51.3125 33.28125 53.65625 
Q 37.453125 56 42.484375 56 
Q 48.140625 56 52.484375 53.265625 
Q 56.84375 50.53125 59.078125 45.609375 
z
" id="DejaVuSans-Bold-109"/>
     </defs>
     <use xlink:href="#DejaVuSans-Bold-73"/>
     <use x="37.207031" xlink:href="#DejaVuSans-Bold-100"/>
     <use x="108.789062" xlink:href="#DejaVuSans-Bold-101"/>
     <use x="176.611328" xlink:href="#DejaVuSans-Bold-97"/>
     <use x="244.091797" xlink:href="#DejaVuSans-Bold-108"/>
     <use x="278.369141" xlink:href="#DejaVuSans-Bold-32"/>
     <use x="313.183594" xlink:href="#DejaVuSans-Bold-115"/>
     <use x="372.705078" xlink:href="#DejaVuSans-Bold-117"/>
     <use x="443.896484" xlink:href="#DejaVuSans-Bold-112"/>
     <use x="515.478516" xlink:href="#DejaVuSans-Bold-112"/>
     <use x="587.060547" xlink:href="#DejaVuSans-Bold-108"/>
     <use x="621.337891" xlink:href="#DejaVuSans-Bold-121"/>
     <use x="686.523438" xlink:href="#DejaVuSans-Bold-32"/>
     <use x="721.337891" xlink:href="#DejaVuSans-Bold-97"/>
     <use x="788.818359" xlink:href="#DejaVuSans-Bold-105"/>
     <use x="823.095703" xlink:href="#DejaVuSans-Bold-114"/>
     <use x="872.412109" xlink:href="#DejaVuSans-Bold-32"/>
     <use x="907.226562" xlink:href="#DejaVuSans-Bold-116"/>
     <use x="955.029297" xlink:href="#DejaVuSans-Bold-101"/>
     <use x="1022.851562" xlink:href="#DejaVuSans-Bold-109"/>
     <use x="1127.050781" xlink:href="#DejaVuSans-Bold-112"/>
     <use x="1198.632812" xlink:href="#DejaVuSans-Bold-101"/>
     <use x="1266.455078" xlink:href="#DejaVuSans-Bold-114"/>
     <use x="1315.771484" xlink:href="#DejaVuSans-Bold-97"/>
     <use x="1383.251953" xlink:href="#DejaVuSans-Bold-116"/>
     <use x="1431.054688" xlink:href="#DejaVuSans-Bold-117"/>
     <use x="1502.246094" xlink:href="#DejaVuSans-Bold-114"/>
     <use x="1551.5625" xlink:href="#DejaVuSans-Bold-101"/>
    </g>
   </g>
   <g id="legend_1">
    <g id="patch_7">
     <path d="M 207.016875 70.411875 
L 939.603125 70.411875 
Q 944.003125 70.411875 944.003125 66.011875 
L 944.003125 35.92 
Q 944.003125 31.52 939.603125 31.52 
L 207.016875 31.52 
Q 202.616875 31.52 202.616875 35.92 
L 202.616875 66.011875 
Q 202.616875 70.411875 207.016875 70.411875 
z
" style="fill:#ffffff;opacity:0.8;stroke:#cccccc;stroke-linejoin:miter;"/>
    </g>
    <g id="line2d_25">
     <path d="M 211.416875 49.336563 
L 255.416875 49.336563 
" style="fill:none;stroke:#0000ff;stroke-linecap:square;stroke-width:4;"/>
    </g>
    <g id="line2d_26"/>
    <g id="text_24">
     <!-- Coldest -->
     <g transform="translate(273.016875 57.036563)scale(0.22 -0.22)">
      <defs>
       <path d="M 64.40625 67.28125 
L 64.40625 56.890625 
Q 59.421875 61.53125 53.78125 63.8125 
Q 48.140625 66.109375 41.796875 66.109375 
Q 29.296875 66.109375 22.65625 58.46875 
Q 16.015625 50.828125 16.015625 36.375 
Q 16.015625 21.96875 22.65625 14.328125 
Q 29.296875 6.6875 41.796875 6.6875 
Q 48.140625 6.6875 53.78125 8.984375 
Q 59.421875 11.28125 64.40625 15.921875 
L 64.40625 5.609375 
Q 59.234375 2.09375 53.4375 0.328125 
Q 47.65625 -1.421875 41.21875 -1.421875 
Q 24.65625 -1.421875 15.125 8.703125 
Q 5.609375 18.84375 5.609375 36.375 
Q 5.609375 53.953125 15.125 64.078125 
Q 24.65625 74.21875 41.21875 74.21875 
Q 47.75 74.21875 53.53125 72.484375 
Q 59.328125 70.75 64.40625 67.28125 
z
" id="DejaVuSans-67"/>
       <path d="M 9.421875 75.984375 
L 18.40625 75.984375 
L 18.40625 0 
L 9.421875 0 
z
" id="DejaVuSans-108"/>
       <path d="M 44.28125 53.078125 
L 44.28125 44.578125 
Q 40.484375 46.53125 36.375 47.5 
Q 32.28125 48.484375 27.875 48.484375 
Q 21.1875 48.484375 17.84375 46.4375 
Q 14.5 44.390625 14.5 40.28125 
Q 14.5 37.15625 16.890625 35.375 
Q 19.28125 33.59375 26.515625 31.984375 
L 29.59375 31.296875 
Q 39.15625 29.25 43.1875 25.515625 
Q 47.21875 21.78125 47.21875 15.09375 
Q 47.21875 7.46875 41.1875 3.015625 
Q 35.15625 -1.421875 24.609375 -1.421875 
Q 20.21875 -1.421875 15.453125 -0.5625 
Q 10.6875 0.296875 5.421875 2 
L 5.421875 11.28125 
Q 10.40625 8.6875 15.234375 7.390625 
Q 20.0625 6.109375 24.8125 6.109375 
Q 31.15625 6.109375 34.5625 8.28125 
Q 37.984375 10.453125 37.984375 14.40625 
Q 37.984375 18.0625 35.515625 20.015625 
Q 33.0625 21.96875 24.703125 23.78125 
L 21.578125 24.515625 
Q 13.234375 26.265625 9.515625 29.90625 
Q 5.8125 33.546875 5.8125 39.890625 
Q 5.8125 47.609375 11.28125 51.796875 
Q 16.75 56 26.8125 56 
Q 31.78125 56 36.171875 55.265625 
Q 40.578125 54.546875 44.28125 53.078125 
z
" id="DejaVuSans-115"/>
      </defs>
      <use xlink:href="#DejaVuSans-67"/>
      <use x="69.824219" xlink:href="#DejaVuSans-111"/>
      <use x="131.005859" xlink:href="#DejaVuSans-108"/>
      <use x="158.789062" xlink:href="#DejaVuSans-100"/>
      <use x="222.265625" xlink:href="#DejaVuSans-101"/>
      <use x="283.789062" xlink:href="#DejaVuSans-115"/>
      <use x="335.888672" xlink:href="#DejaVuSans-116"/>
     </g>
    </g>
    <g id="line2d_27">
     <path d="M 399.540938 49.336563 
L 443.540938 49.336563 
" style="fill:none;stroke:#000000;stroke-linecap:square;stroke-width:4;"/>
    </g>
    <g id="line2d_28"/>
    <g id="text_25">
     <!-- Average -->
     <g transform="translate(461.140938 57.036563)scale(0.22 -0.22)">
      <defs>
       <path d="M 34.1875 63.1875 
L 20.796875 26.90625 
L 47.609375 26.90625 
z
M 28.609375 72.90625 
L 39.796875 72.90625 
L 67.578125 0 
L 57.328125 0 
L 50.6875 18.703125 
L 17.828125 18.703125 
L 11.1875 0 
L 0.78125 0 
z
" id="DejaVuSans-65"/>
       <path d="M 2.984375 54.6875 
L 12.5 54.6875 
L 29.59375 8.796875 
L 46.6875 54.6875 
L 56.203125 54.6875 
L 35.6875 0 
L 23.484375 0 
z
" id="DejaVuSans-118"/>
       <path d="M 45.40625 27.984375 
Q 45.40625 37.75 41.375 43.109375 
Q 37.359375 48.484375 30.078125 48.484375 
Q 22.859375 48.484375 18.828125 43.109375 
Q 14.796875 37.75 14.796875 27.984375 
Q 14.796875 18.265625 18.828125 12.890625 
Q 22.859375 7.515625 30.078125 7.515625 
Q 37.359375 7.515625 41.375 12.890625 
Q 45.40625 18.265625 45.40625 27.984375 
z
M 54.390625 6.78125 
Q 54.390625 -7.171875 48.1875 -13.984375 
Q 42 -20.796875 29.203125 -20.796875 
Q 24.46875 -20.796875 20.265625 -20.09375 
Q 16.0625 -19.390625 12.109375 -17.921875 
L 12.109375 -9.1875 
Q 16.0625 -11.328125 19.921875 -12.34375 
Q 23.78125 -13.375 27.78125 -13.375 
Q 36.625 -13.375 41.015625 -8.765625 
Q 45.40625 -4.15625 45.40625 5.171875 
L 45.40625 9.625 
Q 42.625 4.78125 38.28125 2.390625 
Q 33.9375 0 27.875 0 
Q 17.828125 0 11.671875 7.65625 
Q 5.515625 15.328125 5.515625 27.984375 
Q 5.515625 40.671875 11.671875 48.328125 
Q 17.828125 56 27.875 56 
Q 33.9375 56 38.28125 53.609375 
Q 42.625 51.21875 45.40625 46.390625 
L 45.40625 54.6875 
L 54.390625 54.6875 
z
" id="DejaVuSans-103"/>
      </defs>
      <use xlink:href="#DejaVuSans-65"/>
      <use x="62.533203" xlink:href="#DejaVuSans-118"/>
      <use x="121.712891" xlink:href="#DejaVuSans-101"/>
      <use x="183.236328" xlink:href="#DejaVuSans-114"/>
      <use x="224.349609" xlink:href="#DejaVuSans-97"/>
      <use x="285.628906" xlink:href="#DejaVuSans-103"/>
      <use x="349.105469" xlink:href="#DejaVuSans-101"/>
     </g>
    </g>
    <g id="line2d_29">
     <path d="M 595.485312 49.336563 
L 639.485312 49.336563 
" style="fill:none;stroke:#ff0000;stroke-linecap:square;stroke-width:4;"/>
    </g>
    <g id="line2d_30"/>
    <g id="text_26">
     <!-- Warmest -->
     <g transform="translate(657.085312 57.036563)scale(0.22 -0.22)">
      <defs>
       <path d="M 3.328125 72.90625 
L 13.28125 72.90625 
L 28.609375 11.28125 
L 43.890625 72.90625 
L 54.984375 72.90625 
L 70.3125 11.28125 
L 85.59375 72.90625 
L 95.609375 72.90625 
L 77.296875 0 
L 64.890625 0 
L 49.515625 63.28125 
L 33.984375 0 
L 21.578125 0 
z
" id="DejaVuSans-87"/>
      </defs>
      <use xlink:href="#DejaVuSans-87"/>
      <use x="92.501953" xlink:href="#DejaVuSans-97"/>
      <use x="153.78125" xlink:href="#DejaVuSans-114"/>
      <use x="193.144531" xlink:href="#DejaVuSans-109"/>
      <use x="290.556641" xlink:href="#DejaVuSans-101"/>
      <use x="352.080078" xlink:href="#DejaVuSans-115"/>
      <use x="404.179688" xlink:href="#DejaVuSans-116"/>
     </g>
    </g>
    <g id="line2d_31">
     <path d="M 798.627813 49.336563 
L 842.627813 49.336563 
" style="fill:none;stroke:#000000;stroke-dasharray:14.8,6.4;stroke-dashoffset:0;stroke-width:4;"/>
    </g>
    <g id="line2d_32"/>
    <g id="text_27">
     <!-- Supply -->
     <g transform="translate(860.227813 57.036563)scale(0.22 -0.22)">
      <defs>
       <path d="M 53.515625 70.515625 
L 53.515625 60.890625 
Q 47.90625 63.578125 42.921875 64.890625 
Q 37.9375 66.21875 33.296875 66.21875 
Q 25.25 66.21875 20.875 63.09375 
Q 16.5 59.96875 16.5 54.203125 
Q 16.5 49.359375 19.40625 46.890625 
Q 22.3125 44.4375 30.421875 42.921875 
L 36.375 41.703125 
Q 47.40625 39.59375 52.65625 34.296875 
Q 57.90625 29 57.90625 20.125 
Q 57.90625 9.515625 50.796875 4.046875 
Q 43.703125 -1.421875 29.984375 -1.421875 
Q 24.8125 -1.421875 18.96875 -0.25 
Q 13.140625 0.921875 6.890625 3.21875 
L 6.890625 13.375 
Q 12.890625 10.015625 18.65625 8.296875 
Q 24.421875 6.59375 29.984375 6.59375 
Q 38.421875 6.59375 43.015625 9.90625 
Q 47.609375 13.234375 47.609375 19.390625 
Q 47.609375 24.75 44.3125 27.78125 
Q 41.015625 30.8125 33.5 32.328125 
L 27.484375 33.5 
Q 16.453125 35.6875 11.515625 40.375 
Q 6.59375 45.0625 6.59375 53.421875 
Q 6.59375 63.09375 13.40625 68.65625 
Q 20.21875 74.21875 32.171875 74.21875 
Q 37.3125 74.21875 42.625 73.28125 
Q 47.953125 72.359375 53.515625 70.515625 
z
" id="DejaVuSans-83"/>
       <path d="M 32.171875 -5.078125 
Q 28.375 -14.84375 24.75 -17.8125 
Q 21.140625 -20.796875 15.09375 -20.796875 
L 7.90625 -20.796875 
L 7.90625 -13.28125 
L 13.1875 -13.28125 
Q 16.890625 -13.28125 18.9375 -11.515625 
Q 21 -9.765625 23.484375 -3.21875 
L 25.09375 0.875 
L 2.984375 54.6875 
L 12.5 54.6875 
L 29.59375 11.921875 
L 46.6875 54.6875 
L 56.203125 54.6875 
z
" id="DejaVuSans-121"/>
      </defs>
      <use xlink:href="#DejaVuSans-83"/>
      <use x="63.476562" xlink:href="#DejaVuSans-117"/>
      <use x="126.855469" xlink:href="#DejaVuSans-112"/>
      <use x="190.332031" xlink:href="#DejaVuSans-112"/>
      <use x="253.808594" xlink:href="#DejaVuSans-108"/>
      <use x="281.591797" xlink:href="#DejaVuSans-121"/>
     </g>
    </g>
   </g>
  </g>
  <g id="axes_2">
   <g id="patch_8">
    <path d="M 93.35 744.74 
L 1053.27 744.74 
L 1053.27 425.678 
L 93.35 425.678 
z
" style="fill:#ffffff;"/>
   </g>
   <g id="patch_9">
    <path clip-path="url(#p11b599a975)" d="M 93.35 744.74 
L 93.35 425.678 
L 361.092689 425.678 
L 361.092689 744.74 
z
" style="fill:#ff0000;opacity:0.2;stroke:#ff0000;stroke-linejoin:miter;"/>
   </g>
   <g id="patch_10">
    <path clip-path="url(#p11b599a975)" d="M 361.092689 744.74 
L 361.092689 425.678 
L 693.110505 425.678 
L 693.110505 744.74 
z
" style="fill:#bfbf00;opacity:0.2;stroke:#bfbf00;stroke-linejoin:miter;"/>
   </g>
   <g id="patch_11">
    <path clip-path="url(#p11b599a975)" d="M 693.110505 744.74 
L 693.110505 425.678 
L 832.416195 425.678 
L 832.416195 744.74 
z
" style="opacity:0.2;stroke:#000000;stroke-linejoin:miter;"/>
   </g>
   <g id="patch_12">
    <path clip-path="url(#p11b599a975)" d="M 832.416195 744.74 
L 832.416195 425.678 
L 1053.27 425.678 
L 1053.27 744.74 
z
" style="fill:#0000ff;opacity:0.2;stroke:#0000ff;stroke-linejoin:miter;"/>
   </g>
   <g id="matplotlib.axis_3">
    <g id="xtick_14">
     <g id="line2d_33">
      <g>
       <use style="stroke:#000000;stroke-width:0.8;" x="93.35" xlink:href="#m0968a3101a" y="744.74"/>
      </g>
     </g>
     <g id="text_28">
      <!-- -25 -->
      <g transform="translate(72.933984 770.736094)scale(0.25 -0.25)">
       <use xlink:href="#DejaVuSans-45"/>
       <use x="36.083984" xlink:href="#DejaVuSans-50"/>
       <use x="99.707031" xlink:href="#DejaVuSans-53"/>
      </g>
     </g>
    </g>
    <g id="xtick_15">
     <g id="line2d_34">
      <g>
       <use style="stroke:#000000;stroke-width:0.8;" x="173.343333" xlink:href="#m0968a3101a" y="744.74"/>
      </g>
     </g>
     <g id="text_29">
      <!-- -20 -->
      <g transform="translate(152.927318 770.736094)scale(0.25 -0.25)">
       <use xlink:href="#DejaVuSans-45"/>
       <use x="36.083984" xlink:href="#DejaVuSans-50"/>
       <use x="99.707031" xlink:href="#DejaVuSans-48"/>
      </g>
     </g>
    </g>
    <g id="xtick_16">
     <g id="line2d_35">
      <g>
       <use style="stroke:#000000;stroke-width:0.8;" x="253.336667" xlink:href="#m0968a3101a" y="744.74"/>
      </g>
     </g>
     <g id="text_30">
      <!-- -15 -->
      <g transform="translate(232.920651 770.736094)scale(0.25 -0.25)">
       <use xlink:href="#DejaVuSans-45"/>
       <use x="36.083984" xlink:href="#DejaVuSans-49"/>
       <use x="99.707031" xlink:href="#DejaVuSans-53"/>
      </g>
     </g>
    </g>
    <g id="xtick_17">
     <g id="line2d_36">
      <g>
       <use style="stroke:#000000;stroke-width:0.8;" x="333.33" xlink:href="#m0968a3101a" y="744.74"/>
      </g>
     </g>
     <g id="text_31">
      <!-- -10 -->
      <g transform="translate(312.913984 770.736094)scale(0.25 -0.25)">
       <use xlink:href="#DejaVuSans-45"/>
       <use x="36.083984" xlink:href="#DejaVuSans-49"/>
       <use x="99.707031" xlink:href="#DejaVuSans-48"/>
      </g>
     </g>
    </g>
    <g id="xtick_18">
     <g id="line2d_37">
      <g>
       <use style="stroke:#000000;stroke-width:0.8;" x="413.323333" xlink:href="#m0968a3101a" y="744.74"/>
      </g>
     </g>
     <g id="text_32">
      <!-- -5 -->
      <g transform="translate(400.860443 770.736094)scale(0.25 -0.25)">
       <use xlink:href="#DejaVuSans-45"/>
       <use x="36.083984" xlink:href="#DejaVuSans-53"/>
      </g>
     </g>
    </g>
    <g id="xtick_19">
     <g id="line2d_38">
      <g>
       <use style="stroke:#000000;stroke-width:0.8;" x="493.316667" xlink:href="#m0968a3101a" y="744.74"/>
      </g>
     </g>
     <g id="text_33">
      <!-- 0 -->
      <g transform="translate(485.363542 770.736094)scale(0.25 -0.25)">
       <use xlink:href="#DejaVuSans-48"/>
      </g>
     </g>
    </g>
    <g id="xtick_20">
     <g id="line2d_39">
      <g>
       <use style="stroke:#000000;stroke-width:0.8;" x="573.31" xlink:href="#m0968a3101a" y="744.74"/>
      </g>
     </g>
     <g id="text_34">
      <!-- 5 -->
      <g transform="translate(565.356875 770.736094)scale(0.25 -0.25)">
       <use xlink:href="#DejaVuSans-53"/>
      </g>
     </g>
    </g>
    <g id="xtick_21">
     <g id="line2d_40">
      <g>
       <use style="stroke:#000000;stroke-width:0.8;" x="653.303333" xlink:href="#m0968a3101a" y="744.74"/>
      </g>
     </g>
     <g id="text_35">
      <!-- 10 -->
      <g transform="translate(637.397083 770.736094)scale(0.25 -0.25)">
       <use xlink:href="#DejaVuSans-49"/>
       <use x="63.623047" xlink:href="#DejaVuSans-48"/>
      </g>
     </g>
    </g>
    <g id="xtick_22">
     <g id="line2d_41">
      <g>
       <use style="stroke:#000000;stroke-width:0.8;" x="733.296667" xlink:href="#m0968a3101a" y="744.74"/>
      </g>
     </g>
     <g id="text_36">
      <!-- 15 -->
      <g transform="translate(717.390417 770.736094)scale(0.25 -0.25)">
       <use xlink:href="#DejaVuSans-49"/>
       <use x="63.623047" xlink:href="#DejaVuSans-53"/>
      </g>
     </g>
    </g>
    <g id="xtick_23">
     <g id="line2d_42">
      <g>
       <use style="stroke:#000000;stroke-width:0.8;" x="813.29" xlink:href="#m0968a3101a" y="744.74"/>
      </g>
     </g>
     <g id="text_37">
      <!-- 20 -->
      <g transform="translate(797.38375 770.736094)scale(0.25 -0.25)">
       <use xlink:href="#DejaVuSans-50"/>
       <use x="63.623047" xlink:href="#DejaVuSans-48"/>
      </g>
     </g>
    </g>
    <g id="xtick_24">
     <g id="line2d_43">
      <g>
       <use style="stroke:#000000;stroke-width:0.8;" x="893.283333" xlink:href="#m0968a3101a" y="744.74"/>
      </g>
     </g>
     <g id="text_38">
      <!-- 25 -->
      <g transform="translate(877.377083 770.736094)scale(0.25 -0.25)">
       <use xlink:href="#DejaVuSans-50"/>
       <use x="63.623047" xlink:href="#DejaVuSans-53"/>
      </g>
     </g>
    </g>
    <g id="xtick_25">
     <g id="line2d_44">
      <g>
       <use style="stroke:#000000;stroke-width:0.8;" x="973.276667" xlink:href="#m0968a3101a" y="744.74"/>
      </g>
     </g>
     <g id="text_39">
      <!-- 30 -->
      <g transform="translate(957.370417 770.736094)scale(0.25 -0.25)">
       <use xlink:href="#DejaVuSans-51"/>
       <use x="63.623047" xlink:href="#DejaVuSans-48"/>
      </g>
     </g>
    </g>
    <g id="xtick_26">
     <g id="line2d_45">
      <g>
       <use style="stroke:#000000;stroke-width:0.8;" x="1053.27" xlink:href="#m0968a3101a" y="744.74"/>
      </g>
     </g>
     <g id="text_40">
      <!-- 35 -->
      <g transform="translate(1037.36375 770.736094)scale(0.25 -0.25)">
       <use xlink:href="#DejaVuSans-51"/>
       <use x="63.623047" xlink:href="#DejaVuSans-53"/>
      </g>
     </g>
    </g>
    <g id="text_41">
     <!-- Outdoor air temperature $(^{0}C)$ -->
     <g transform="translate(397.99 801.775312)scale(0.24 -0.24)">
      <use transform="translate(0 0.765625)" xlink:href="#DejaVuSans-79"/>
      <use transform="translate(78.710938 0.765625)" xlink:href="#DejaVuSans-117"/>
      <use transform="translate(142.089844 0.765625)" xlink:href="#DejaVuSans-116"/>
      <use transform="translate(181.298828 0.765625)" xlink:href="#DejaVuSans-100"/>
      <use transform="translate(244.775391 0.765625)" xlink:href="#DejaVuSans-111"/>
      <use transform="translate(305.957031 0.765625)" xlink:href="#DejaVuSans-111"/>
      <use transform="translate(367.138672 0.765625)" xlink:href="#DejaVuSans-114"/>
      <use transform="translate(408.251953 0.765625)" xlink:href="#DejaVuSans-32"/>
      <use transform="translate(440.039062 0.765625)" xlink:href="#DejaVuSans-97"/>
      <use transform="translate(501.318359 0.765625)" xlink:href="#DejaVuSans-105"/>
      <use transform="translate(529.101562 0.765625)" xlink:href="#DejaVuSans-114"/>
      <use transform="translate(570.214844 0.765625)" xlink:href="#DejaVuSans-32"/>
      <use transform="translate(602.001953 0.765625)" xlink:href="#DejaVuSans-116"/>
      <use transform="translate(641.210938 0.765625)" xlink:href="#DejaVuSans-101"/>
      <use transform="translate(702.734375 0.765625)" xlink:href="#DejaVuSans-109"/>
      <use transform="translate(800.146484 0.765625)" xlink:href="#DejaVuSans-112"/>
      <use transform="translate(863.623047 0.765625)" xlink:href="#DejaVuSans-101"/>
      <use transform="translate(925.146484 0.765625)" xlink:href="#DejaVuSans-114"/>
      <use transform="translate(966.259766 0.765625)" xlink:href="#DejaVuSans-97"/>
      <use transform="translate(1027.539062 0.765625)" xlink:href="#DejaVuSans-116"/>
      <use transform="translate(1066.748047 0.765625)" xlink:href="#DejaVuSans-117"/>
      <use transform="translate(1130.126953 0.765625)" xlink:href="#DejaVuSans-114"/>
      <use transform="translate(1171.240234 0.765625)" xlink:href="#DejaVuSans-101"/>
      <use transform="translate(1232.763672 0.765625)" xlink:href="#DejaVuSans-32"/>
      <use transform="translate(1264.550781 0.765625)" xlink:href="#DejaVuSans-40"/>
      <use transform="translate(1304.521484 39.046875)scale(0.7)" xlink:href="#DejaVuSans-48"/>
      <use transform="translate(1351.791992 0.765625)" xlink:href="#DejaVuSans-Oblique-67"/>
      <use transform="translate(1421.616211 0.765625)" xlink:href="#DejaVuSans-41"/>
     </g>
    </g>
   </g>
   <g id="matplotlib.axis_4">
    <g id="ytick_8">
     <g id="line2d_46">
      <g>
       <use style="stroke:#000000;stroke-width:0.8;" x="93.35" xlink:href="#m3bc62c24ff" y="744.74"/>
      </g>
     </g>
     <g id="text_42">
      <!-- 0 -->
      <g transform="translate(70.44375 754.238047)scale(0.25 -0.25)">
       <use xlink:href="#DejaVuSans-48"/>
      </g>
     </g>
    </g>
    <g id="ytick_9">
     <g id="line2d_47">
      <g>
       <use style="stroke:#000000;stroke-width:0.8;" x="93.35" xlink:href="#m3bc62c24ff" y="712.8338"/>
      </g>
     </g>
     <g id="text_43">
      <!-- 10 -->
      <g transform="translate(54.5375 722.331847)scale(0.25 -0.25)">
       <use xlink:href="#DejaVuSans-49"/>
       <use x="63.623047" xlink:href="#DejaVuSans-48"/>
      </g>
     </g>
    </g>
    <g id="ytick_10">
     <g id="line2d_48">
      <g>
       <use style="stroke:#000000;stroke-width:0.8;" x="93.35" xlink:href="#m3bc62c24ff" y="680.9276"/>
      </g>
     </g>
     <g id="text_44">
      <!-- 20 -->
      <g transform="translate(54.5375 690.425647)scale(0.25 -0.25)">
       <use xlink:href="#DejaVuSans-50"/>
       <use x="63.623047" xlink:href="#DejaVuSans-48"/>
      </g>
     </g>
    </g>
    <g id="ytick_11">
     <g id="line2d_49">
      <g>
       <use style="stroke:#000000;stroke-width:0.8;" x="93.35" xlink:href="#m3bc62c24ff" y="649.0214"/>
      </g>
     </g>
     <g id="text_45">
      <!-- 30 -->
      <g transform="translate(54.5375 658.519447)scale(0.25 -0.25)">
       <use xlink:href="#DejaVuSans-51"/>
       <use x="63.623047" xlink:href="#DejaVuSans-48"/>
      </g>
     </g>
    </g>
    <g id="ytick_12">
     <g id="line2d_50">
      <g>
       <use style="stroke:#000000;stroke-width:0.8;" x="93.35" xlink:href="#m3bc62c24ff" y="617.1152"/>
      </g>
     </g>
     <g id="text_46">
      <!-- 40 -->
      <g transform="translate(54.5375 626.613247)scale(0.25 -0.25)">
       <use xlink:href="#DejaVuSans-52"/>
       <use x="63.623047" xlink:href="#DejaVuSans-48"/>
      </g>
     </g>
    </g>
    <g id="ytick_13">
     <g id="line2d_51">
      <g>
       <use style="stroke:#000000;stroke-width:0.8;" x="93.35" xlink:href="#m3bc62c24ff" y="585.209"/>
      </g>
     </g>
     <g id="text_47">
      <!-- 50 -->
      <g transform="translate(54.5375 594.707047)scale(0.25 -0.25)">
       <use xlink:href="#DejaVuSans-53"/>
       <use x="63.623047" xlink:href="#DejaVuSans-48"/>
      </g>
     </g>
    </g>
    <g id="ytick_14">
     <g id="line2d_52">
      <g>
       <use style="stroke:#000000;stroke-width:0.8;" x="93.35" xlink:href="#m3bc62c24ff" y="553.3028"/>
      </g>
     </g>
     <g id="text_48">
      <!-- 60 -->
      <g transform="translate(54.5375 562.800847)scale(0.25 -0.25)">
       <defs>
        <path d="M 33.015625 40.375 
Q 26.375 40.375 22.484375 35.828125 
Q 18.609375 31.296875 18.609375 23.390625 
Q 18.609375 15.53125 22.484375 10.953125 
Q 26.375 6.390625 33.015625 6.390625 
Q 39.65625 6.390625 43.53125 10.953125 
Q 47.40625 15.53125 47.40625 23.390625 
Q 47.40625 31.296875 43.53125 35.828125 
Q 39.65625 40.375 33.015625 40.375 
z
M 52.59375 71.296875 
L 52.59375 62.3125 
Q 48.875 64.0625 45.09375 64.984375 
Q 41.3125 65.921875 37.59375 65.921875 
Q 27.828125 65.921875 22.671875 59.328125 
Q 17.53125 52.734375 16.796875 39.40625 
Q 19.671875 43.65625 24.015625 45.921875 
Q 28.375 48.1875 33.59375 48.1875 
Q 44.578125 48.1875 50.953125 41.515625 
Q 57.328125 34.859375 57.328125 23.390625 
Q 57.328125 12.15625 50.6875 5.359375 
Q 44.046875 -1.421875 33.015625 -1.421875 
Q 20.359375 -1.421875 13.671875 8.265625 
Q 6.984375 17.96875 6.984375 36.375 
Q 6.984375 53.65625 15.1875 63.9375 
Q 23.390625 74.21875 37.203125 74.21875 
Q 40.921875 74.21875 44.703125 73.484375 
Q 48.484375 72.75 52.59375 71.296875 
z
" id="DejaVuSans-54"/>
       </defs>
       <use xlink:href="#DejaVuSans-54"/>
       <use x="63.623047" xlink:href="#DejaVuSans-48"/>
      </g>
     </g>
    </g>
    <g id="ytick_15">
     <g id="line2d_53">
      <g>
       <use style="stroke:#000000;stroke-width:0.8;" x="93.35" xlink:href="#m3bc62c24ff" y="521.3966"/>
      </g>
     </g>
     <g id="text_49">
      <!-- 70 -->
      <g transform="translate(54.5375 530.894647)scale(0.25 -0.25)">
       <use xlink:href="#DejaVuSans-55"/>
       <use x="63.623047" xlink:href="#DejaVuSans-48"/>
      </g>
     </g>
    </g>
    <g id="ytick_16">
     <g id="line2d_54">
      <g>
       <use style="stroke:#000000;stroke-width:0.8;" x="93.35" xlink:href="#m3bc62c24ff" y="489.4904"/>
      </g>
     </g>
     <g id="text_50">
      <!-- 80 -->
      <g transform="translate(54.5375 498.988447)scale(0.25 -0.25)">
       <use xlink:href="#DejaVuSans-56"/>
       <use x="63.623047" xlink:href="#DejaVuSans-48"/>
      </g>
     </g>
    </g>
    <g id="ytick_17">
     <g id="line2d_55">
      <g>
       <use style="stroke:#000000;stroke-width:0.8;" x="93.35" xlink:href="#m3bc62c24ff" y="457.5842"/>
      </g>
     </g>
     <g id="text_51">
      <!-- 90 -->
      <g transform="translate(54.5375 467.082247)scale(0.25 -0.25)">
       <defs>
        <path d="M 10.984375 1.515625 
L 10.984375 10.5 
Q 14.703125 8.734375 18.5 7.8125 
Q 22.3125 6.890625 25.984375 6.890625 
Q 35.75 6.890625 40.890625 13.453125 
Q 46.046875 20.015625 46.78125 33.40625 
Q 43.953125 29.203125 39.59375 26.953125 
Q 35.25 24.703125 29.984375 24.703125 
Q 19.046875 24.703125 12.671875 31.3125 
Q 6.296875 37.9375 6.296875 49.421875 
Q 6.296875 60.640625 12.9375 67.421875 
Q 19.578125 74.21875 30.609375 74.21875 
Q 43.265625 74.21875 49.921875 64.515625 
Q 56.59375 54.828125 56.59375 36.375 
Q 56.59375 19.140625 48.40625 8.859375 
Q 40.234375 -1.421875 26.421875 -1.421875 
Q 22.703125 -1.421875 18.890625 -0.6875 
Q 15.09375 0.046875 10.984375 1.515625 
z
M 30.609375 32.421875 
Q 37.25 32.421875 41.125 36.953125 
Q 45.015625 41.5 45.015625 49.421875 
Q 45.015625 57.28125 41.125 61.84375 
Q 37.25 66.40625 30.609375 66.40625 
Q 23.96875 66.40625 20.09375 61.84375 
Q 16.21875 57.28125 16.21875 49.421875 
Q 16.21875 41.5 20.09375 36.953125 
Q 23.96875 32.421875 30.609375 32.421875 
z
" id="DejaVuSans-57"/>
       </defs>
       <use xlink:href="#DejaVuSans-57"/>
       <use x="63.623047" xlink:href="#DejaVuSans-48"/>
      </g>
     </g>
    </g>
    <g id="ytick_18">
     <g id="line2d_56">
      <g>
       <use style="stroke:#000000;stroke-width:0.8;" x="93.35" xlink:href="#m3bc62c24ff" y="425.678"/>
      </g>
     </g>
     <g id="text_52">
      <!-- 100 -->
      <g transform="translate(38.63125 435.176047)scale(0.25 -0.25)">
       <use xlink:href="#DejaVuSans-49"/>
       <use x="63.623047" xlink:href="#DejaVuSans-48"/>
       <use x="127.246094" xlink:href="#DejaVuSans-48"/>
      </g>
     </g>
    </g>
    <g id="text_53">
     <!-- Damper position/state (%) -->
     <g transform="translate(29.64 743.790875)rotate(-90)scale(0.24 -0.24)">
      <defs>
       <path d="M 19.671875 64.796875 
L 19.671875 8.109375 
L 31.59375 8.109375 
Q 46.6875 8.109375 53.6875 14.9375 
Q 60.6875 21.78125 60.6875 36.53125 
Q 60.6875 51.171875 53.6875 57.984375 
Q 46.6875 64.796875 31.59375 64.796875 
z
M 9.8125 72.90625 
L 30.078125 72.90625 
Q 51.265625 72.90625 61.171875 64.09375 
Q 71.09375 55.28125 71.09375 36.53125 
Q 71.09375 17.671875 61.125 8.828125 
Q 51.171875 0 30.078125 0 
L 9.8125 0 
z
" id="DejaVuSans-68"/>
       <path d="M 25.390625 72.90625 
L 33.6875 72.90625 
L 8.296875 -9.28125 
L 0 -9.28125 
z
" id="DejaVuSans-47"/>
       <path d="M 72.703125 32.078125 
Q 68.453125 32.078125 66.03125 28.46875 
Q 63.625 24.859375 63.625 18.40625 
Q 63.625 12.0625 66.03125 8.421875 
Q 68.453125 4.78125 72.703125 4.78125 
Q 76.859375 4.78125 79.265625 8.421875 
Q 81.6875 12.0625 81.6875 18.40625 
Q 81.6875 24.8125 79.265625 28.4375 
Q 76.859375 32.078125 72.703125 32.078125 
z
M 72.703125 38.28125 
Q 80.421875 38.28125 84.953125 32.90625 
Q 89.5 27.546875 89.5 18.40625 
Q 89.5 9.28125 84.9375 3.921875 
Q 80.375 -1.421875 72.703125 -1.421875 
Q 64.890625 -1.421875 60.34375 3.921875 
Q 55.8125 9.28125 55.8125 18.40625 
Q 55.8125 27.59375 60.375 32.9375 
Q 64.9375 38.28125 72.703125 38.28125 
z
M 22.3125 68.015625 
Q 18.109375 68.015625 15.6875 64.375 
Q 13.28125 60.75 13.28125 54.390625 
Q 13.28125 47.953125 15.671875 44.328125 
Q 18.0625 40.71875 22.3125 40.71875 
Q 26.5625 40.71875 28.96875 44.328125 
Q 31.390625 47.953125 31.390625 54.390625 
Q 31.390625 60.6875 28.953125 64.34375 
Q 26.515625 68.015625 22.3125 68.015625 
z
M 66.40625 74.21875 
L 74.21875 74.21875 
L 28.609375 -1.421875 
L 20.796875 -1.421875 
z
M 22.3125 74.21875 
Q 30.03125 74.21875 34.609375 68.875 
Q 39.203125 63.53125 39.203125 54.390625 
Q 39.203125 45.171875 34.640625 39.84375 
Q 30.078125 34.515625 22.3125 34.515625 
Q 14.546875 34.515625 10.03125 39.859375 
Q 5.515625 45.21875 5.515625 54.390625 
Q 5.515625 63.484375 10.046875 68.84375 
Q 14.59375 74.21875 22.3125 74.21875 
z
" id="DejaVuSans-37"/>
      </defs>
      <use xlink:href="#DejaVuSans-68"/>
      <use x="77.001953" xlink:href="#DejaVuSans-97"/>
      <use x="138.28125" xlink:href="#DejaVuSans-109"/>
      <use x="235.693359" xlink:href="#DejaVuSans-112"/>
      <use x="299.169922" xlink:href="#DejaVuSans-101"/>
      <use x="360.693359" xlink:href="#DejaVuSans-114"/>
      <use x="401.806641" xlink:href="#DejaVuSans-32"/>
      <use x="433.59375" xlink:href="#DejaVuSans-112"/>
      <use x="497.070312" xlink:href="#DejaVuSans-111"/>
      <use x="558.251953" xlink:href="#DejaVuSans-115"/>
      <use x="610.351562" xlink:href="#DejaVuSans-105"/>
      <use x="638.134766" xlink:href="#DejaVuSans-116"/>
      <use x="677.34375" xlink:href="#DejaVuSans-105"/>
      <use x="705.126953" xlink:href="#DejaVuSans-111"/>
      <use x="766.308594" xlink:href="#DejaVuSans-110"/>
      <use x="829.6875" xlink:href="#DejaVuSans-47"/>
      <use x="863.378906" xlink:href="#DejaVuSans-115"/>
      <use x="915.478516" xlink:href="#DejaVuSans-116"/>
      <use x="954.6875" xlink:href="#DejaVuSans-97"/>
      <use x="1015.966797" xlink:href="#DejaVuSans-116"/>
      <use x="1055.175781" xlink:href="#DejaVuSans-101"/>
      <use x="1116.699219" xlink:href="#DejaVuSans-32"/>
      <use x="1148.486328" xlink:href="#DejaVuSans-40"/>
      <use x="1187.5" xlink:href="#DejaVuSans-37"/>
      <use x="1282.519531" xlink:href="#DejaVuSans-41"/>
     </g>
    </g>
   </g>
   <g id="line2d_57">
    <path clip-path="url(#p11b599a975)" d="M 93.35 643.204497 
L 360.527733 643.204497 
L 362.1276 642.52646 
L 693.3 425.678 
L 830.888533 425.678 
L 832.4884 643.204497 
L 1051.670133 643.204497 
L 1051.670133 643.204497 
" style="fill:none;stroke:#000000;stroke-dasharray:25.6,6.4,4,6.4;stroke-dashoffset:0;stroke-width:4;"/>
   </g>
   <g id="line2d_58">
    <path clip-path="url(#p11b599a975)" d="M 93.35 744.74 
L 1051.670133 744.74 
L 1051.670133 744.74 
" style="fill:none;stroke:#ff0000;stroke-linecap:square;stroke-width:4;"/>
   </g>
   <g id="line2d_59">
    <path clip-path="url(#p11b599a975)" d="M 93.35 744.74 
L 691.700133 744.74 
L 693.3 744.621616 
L 1051.670133 520.735953 
L 1051.670133 520.735953 
" style="fill:none;stroke:#0000ff;stroke-dasharray:4,6.6;stroke-dashoffset:0;stroke-width:4;"/>
   </g>
   <g id="line2d_60">
    <path clip-path="url(#p11b599a975)" d="M 93.35 564.560102 
L 691.700133 564.167974 
L 693.3 744.74 
L 1051.670133 744.74 
L 1051.670133 744.74 
" style="fill:none;stroke:#ff0000;stroke-dasharray:14.8,6.4;stroke-dashoffset:0;stroke-width:4;"/>
   </g>
   <g id="patch_13">
    <path d="M 93.35 744.74 
L 93.35 425.678 
" style="fill:none;stroke:#000000;stroke-linecap:square;stroke-linejoin:miter;stroke-width:0.8;"/>
   </g>
   <g id="patch_14">
    <path d="M 1053.27 744.74 
L 1053.27 425.678 
" style="fill:none;stroke:#000000;stroke-linecap:square;stroke-linejoin:miter;stroke-width:0.8;"/>
   </g>
   <g id="patch_15">
    <path d="M 93.35 744.74 
L 1053.27 744.74 
" style="fill:none;stroke:#000000;stroke-linecap:square;stroke-linejoin:miter;stroke-width:0.8;"/>
   </g>
   <g id="patch_16">
    <path d="M 93.35 425.678 
L 1053.27 425.678 
" style="fill:none;stroke:#000000;stroke-linecap:square;stroke-linejoin:miter;stroke-width:0.8;"/>
   </g>
   <g id="legend_2">
    <g id="patch_17">
     <path d="M 273.190859 859.8648 
L 873.429141 859.8648 
Q 878.429141 859.8648 878.429141 854.8648 
L 878.429141 820.669487 
Q 878.429141 815.669487 873.429141 815.669487 
L 273.190859 815.669487 
Q 268.190859 815.669487 268.190859 820.669487 
L 268.190859 854.8648 
Q 268.190859 859.8648 273.190859 859.8648 
z
" style="fill:#ffffff;opacity:0.8;stroke:#cccccc;stroke-linejoin:miter;"/>
    </g>
    <g id="line2d_61">
     <path d="M 278.190859 835.915581 
L 328.190859 835.915581 
" style="fill:none;stroke:#000000;stroke-dasharray:25.6,6.4,4,6.4;stroke-dashoffset:0;stroke-width:4;"/>
    </g>
    <g id="line2d_62"/>
    <g id="text_54">
     <!-- OA -->
     <g transform="translate(348.190859 844.665581)scale(0.25 -0.25)">
      <use xlink:href="#DejaVuSans-79"/>
      <use x="76.960938" xlink:href="#DejaVuSans-65"/>
     </g>
    </g>
    <g id="line2d_63">
     <path d="M 434.534609 835.915581 
L 484.534609 835.915581 
" style="fill:none;stroke:#ff0000;stroke-linecap:square;stroke-width:4;"/>
    </g>
    <g id="line2d_64"/>
    <g id="text_55">
     <!-- HC -->
     <g transform="translate(504.534609 844.665581)scale(0.25 -0.25)">
      <defs>
       <path d="M 9.8125 72.90625 
L 19.671875 72.90625 
L 19.671875 43.015625 
L 55.515625 43.015625 
L 55.515625 72.90625 
L 65.375 72.90625 
L 65.375 0 
L 55.515625 0 
L 55.515625 34.71875 
L 19.671875 34.71875 
L 19.671875 0 
L 9.8125 0 
z
" id="DejaVuSans-72"/>
      </defs>
      <use xlink:href="#DejaVuSans-72"/>
      <use x="75.195312" xlink:href="#DejaVuSans-67"/>
     </g>
    </g>
    <g id="line2d_65">
     <path d="M 590.792422 835.915581 
L 640.792422 835.915581 
" style="fill:none;stroke:#0000ff;stroke-dasharray:4,6.6;stroke-dashoffset:0;stroke-width:4;"/>
    </g>
    <g id="line2d_66"/>
    <g id="text_56">
     <!-- CC -->
     <g transform="translate(660.792422 844.665581)scale(0.25 -0.25)">
      <use xlink:href="#DejaVuSans-67"/>
      <use x="69.824219" xlink:href="#DejaVuSans-67"/>
     </g>
    </g>
    <g id="line2d_67">
     <path d="M 745.706484 835.915581 
L 795.706484 835.915581 
" style="fill:none;stroke:#ff0000;stroke-dasharray:14.8,6.4;stroke-dashoffset:0;stroke-width:4;"/>
    </g>
    <g id="line2d_68"/>
    <g id="text_57">
     <!-- RAD -->
     <g transform="translate(815.706484 844.665581)scale(0.25 -0.25)">
      <defs>
       <path d="M 44.390625 34.1875 
Q 47.5625 33.109375 50.5625 29.59375 
Q 53.5625 26.078125 56.59375 19.921875 
L 66.609375 0 
L 56 0 
L 46.6875 18.703125 
Q 43.0625 26.03125 39.671875 28.421875 
Q 36.28125 30.8125 30.421875 30.8125 
L 19.671875 30.8125 
L 19.671875 0 
L 9.8125 0 
L 9.8125 72.90625 
L 32.078125 72.90625 
Q 44.578125 72.90625 50.734375 67.671875 
Q 56.890625 62.453125 56.890625 51.90625 
Q 56.890625 45.015625 53.6875 40.46875 
Q 50.484375 35.9375 44.390625 34.1875 
z
M 19.671875 64.796875 
L 19.671875 38.921875 
L 32.078125 38.921875 
Q 39.203125 38.921875 42.84375 42.21875 
Q 46.484375 45.515625 46.484375 51.90625 
Q 46.484375 58.296875 42.84375 61.546875 
Q 39.203125 64.796875 32.078125 64.796875 
z
" id="DejaVuSans-82"/>
      </defs>
      <use xlink:href="#DejaVuSans-82"/>
      <use x="65.482422" xlink:href="#DejaVuSans-65"/>
      <use x="133.890625" xlink:href="#DejaVuSans-68"/>
     </g>
    </g>
   </g>
  </g>
 </g>
 <defs>
  <clipPath id="p9bbdf0f329">
   <rect height="319.062" width="959.92" x="93.35" y="20.52"/>
  </clipPath>
  <clipPath id="p11b599a975">
   <rect height="319.062" width="959.92" x="93.35" y="425.678"/>
  </clipPath>
 </defs>
</svg>
